<svg width="463" height="405" viewBox="0 0 463 405" fill="none" xmlns="http://www.w3.org/2000/svg">
<path d="M22.3045 223.045C34.6229 223.045 44.6089 213.059 44.6089 200.74C44.6089 188.422 34.6229 178.436 22.3045 178.436C9.98605 178.436 0 188.422 0 200.74C0 213.059 9.98605 223.045 22.3045 223.045Z" fill="#EDB05C" fill-opacity="0.56"/>
<path d="M439.716 404.667C452.035 404.667 462.021 394.681 462.021 382.362C462.021 370.044 452.035 360.058 439.716 360.058C427.398 360.058 417.412 370.044 417.412 382.362C417.412 394.681 427.398 404.667 439.716 404.667Z" fill="#EDB05C" fill-opacity="0.56"/>
<path d="M289.958 44.6089C302.276 44.6089 312.262 34.6229 312.262 22.3045C312.262 9.98607 302.276 0 289.958 0C277.639 0 267.653 9.98607 267.653 22.3045C267.653 34.6229 277.639 44.6089 289.958 44.6089Z" fill="#EDB05C" fill-opacity="0.56"/>
</svg>
