<?xml version="1.0" encoding="iso-8859-1"?>
<!-- Generator: Adobe Illustrator 25.2.3, SVG Export Plug-In . SVG Version: 6.00 Build 0)  -->
<svg version="1.1" id="Layer_1" xmlns="http://www.w3.org/2000/svg" xmlns:xlink="http://www.w3.org/1999/xlink" x="0px" y="0px"
	 viewBox="0 0 348.094 66.929" style="enable-background:new 0 0 348.094 66.929;" xml:space="preserve">
<g>
	<path style="fill:#21264D;" d="M27.074,56.654c-9.97,0-18.081-8.111-18.081-18.081s8.112-18.081,18.081-18.081
		c5.415,0,10.502,2.399,13.956,6.583l6.162-5.089c-4.978-6.029-12.309-9.487-20.119-9.487C12.697,12.499,1,24.195,1,38.573
		s11.697,26.074,26.074,26.074c7.909,0,15.301-3.529,20.279-9.684l-6.213-5.027C37.686,54.205,32.56,56.654,27.074,56.654z"/>
	<path style="fill:#21264D;" d="M302.693,12.567c-14.376,0-26.07,11.696-26.07,26.07s11.695,26.069,26.07,26.069
		c8.075,0,15.562-3.651,20.542-10.017l-6.295-4.925c-3.454,4.417-8.646,6.95-14.247,6.95c-8.594,0-15.808-6.03-17.633-14.08h43.703
		v-3.996C328.764,24.263,317.069,12.567,302.693,12.567z M285.061,34.641c1.824-8.052,9.037-14.081,17.633-14.081
		c8.596,0,15.808,6.029,17.633,14.081H285.061z"/>
	<path style="fill:#21264D;" d="M257.143,19.952c-4.65-4.503-10.979-7.283-17.949-7.283c-14.239,0-25.823,11.583-25.823,25.821
		s11.583,25.822,25.823,25.822c6.97,0,13.298-2.78,17.949-7.284v7.66h7.993V-2h-7.993V19.952z M239.194,56.32
		c-9.831,0-17.83-7.999-17.83-17.83s7.999-17.829,17.83-17.829s17.83,7.998,17.83,17.829S249.025,56.32,239.194,56.32z"/>
	<path style="fill:#21264D;" d="M142.154,13.513h-7.993v6.116c-4.681-4.434-10.993-7.163-17.935-7.163
		c-14.395,0-26.105,11.711-26.105,26.106s11.71,26.106,26.105,26.106c6.942,0,13.254-2.729,17.935-7.163v7.217h7.993v-23.16
		c0.113-0.985,0.178-1.985,0.178-3s-0.064-2.015-0.178-3V13.513z M134.161,40.97c-1.179,8.856-8.763,15.716-17.935,15.716
		c-9.987,0-18.113-8.125-18.113-18.114s8.125-18.114,18.113-18.114c9.173,0,16.756,6.86,17.935,15.716V40.97z"/>
	<rect x="340.825" y="-2" style="fill:#21264D;" width="7.993" height="67.039"/>
	<path style="fill:#21264D;" d="M182.007,35.443c-11.115,0-19.736-12.247-19.736-22.782h-7.993c0,13.278,9.91,27.986,23.733,30.418
		v21.654h7.993V43.079c13.823-2.432,23.733-17.14,23.733-30.418h-7.993C201.743,23.196,193.122,35.443,182.007,35.443z"/>
	<path style="fill:#21264D;" d="M67.339,12.467h-7.993v25.367v24.069v2.829h7.993v-2.829V37.834
		c0-9.686,10.672-17.197,19.853-17.197v-7.993c-6.993,0-14.427,3.05-19.853,8.075V12.467z"/>
	<circle style="fill:#F6A70B;" cx="182.007" cy="17.602" r="7.279"/>
</g>
</svg>
