<svg width="120" height="154" viewBox="0 0 120 154" fill="none" xmlns="http://www.w3.org/2000/svg">
<circle cx="59.8154" cy="59.8154" r="59.8154" fill="white"/>
<rect x="36.5062" y="58.7667" width="58.2337" height="81.6579" rx="7" transform="rotate(2.5 36.5062 58.7667)" fill="#EEEEEE" stroke="#999999" stroke-width="2"/>
<rect x="1.35264" y="53.5516" width="62.2337" height="85.6579" rx="9" transform="rotate(-7.5 1.35264 53.5516)" fill="#FAFAFA" stroke="#999999" stroke-width="2"/>
<path d="M3.51882 62.344C2.94212 57.9635 6.02569 53.945 10.4062 53.3683L54.2614 47.5946C58.6419 47.0179 62.6605 50.1015 63.2372 54.482L64.7045 65.6271L4.98611 73.4892L3.51882 62.344Z" fill="#EEEEEE"/>
<rect x="75.1802" y="49.0596" width="2.50974" height="8.36579" rx="1.25487" transform="rotate(82.5 75.1802 49.0596)" fill="#999999"/>
<rect x="52.2612" y="35.201" width="2.50974" height="8.36579" rx="1.25487" transform="rotate(-7.5 52.2612 35.201)" fill="#999999"/>
<rect x="66.9663" y="37.484" width="2.50974" height="8.36579" rx="1.25487" transform="rotate(37.5 66.9663 37.484)" fill="#999999"/>
<rect x="11.229" y="76.0425" width="48.5216" height="3.34632" rx="1.67316" transform="rotate(-7.5 11.229 76.0425)" fill="#DCDCDC"/>
<rect x="13.4126" y="92.6309" width="48.5216" height="3.34632" rx="1.67316" transform="rotate(-7.5 13.4126 92.6309)" fill="#DCDCDC"/>
<rect x="15.5967" y="109.219" width="48.5216" height="3.34632" rx="1.67316" transform="rotate(-7.5 15.5967 109.219)" fill="#DCDCDC"/>
<rect x="12.1025" y="82.6779" width="17.5682" height="3.34632" rx="1.67316" transform="rotate(-7.5 12.1025 82.6779)" fill="#EEEEEE"/>
<rect x="14.2866" y="99.2663" width="17.5682" height="3.34632" rx="1.67316" transform="rotate(-7.5 14.2866 99.2663)" fill="#EEEEEE"/>
<rect x="16.4702" y="115.855" width="17.5682" height="3.34632" rx="1.67316" transform="rotate(-7.5 16.4702 115.855)" fill="#EEEEEE"/>
</svg>
