<svg width="120" height="120" viewBox="0 0 120 120" fill="none" xmlns="http://www.w3.org/2000/svg">
<g clip-path="url(#clip0_36_75)">
<path d="M119.112 58.6299C119.157 61.5546 118.987 64.4787 118.602 67.3784C115.653 89.9277 100.051 108.584 79.0657 115.855C73.0838 117.927 66.8092 119.029 60.4794 119.12C60.1316 119.12 59.7839 119.12 59.4361 119.12C57.5339 119.125 55.6326 119.035 53.7394 118.85C23.9729 115.963 0.485374 91.1032 0.00818263 60.4901C-0.506753 27.5989 25.7361 0.520333 58.63 0.00809354C86.6819 -0.431354 110.506 18.6105 117.228 44.6107C117.96 47.4439 118.482 50.3275 118.789 53.2379C118.974 55.0173 119.081 56.8146 119.112 58.6299Z" fill="#FF6D3A"/>
<path d="M56.3922 72.5143L28.3943 61.5739C28.743 67.5698 29.0917 73.5657 29.4403 79.5616C33.7237 83.232 38.6636 86.0578 43.9987 87.8895C48.1142 89.2877 52.4236 90.031 56.7697 90.0922C61.1122 89.895 65.397 89.018 69.4678 87.4932C74.7426 85.4949 79.591 82.5155 83.7566 78.7124C83.9148 72.641 84.0748 66.5678 84.2365 60.4928L56.3922 72.5143Z" fill="#293A4E"/>
<path d="M56.4488 75.523L105.457 54.6102L105.408 51.5772L55.8179 35.2394L6.75073 53.1193L6.80735 56.1523L56.4434 75.523H56.4488Z" fill="#253847"/>
<path d="M105.408 51.6122L105.098 51.7443L87.9731 59.0532L86.6143 59.6328L84.2364 60.6492L56.4029 72.5251V72.5278L56.3948 72.5251L56.3894 72.5278V72.5251L28.3969 61.6009L8.83741 53.9658L6.7561 53.1543L7.3654 52.8928L11.6493 51.0649L55.7613 32.2414V32.2361L55.7667 32.2388L55.7747 32.2361V32.2414L104.659 51.3183L104.837 51.3884L105.408 51.6122Z" fill="#314A5E"/>
<path d="M105.209 98.2988C103.672 97.8162 103.189 99.3502 103.189 99.3502C103.173 99.4024 103.154 99.4537 103.133 99.5039C103.051 99.695 102.939 99.8716 102.801 100.027C102.567 100.286 102.278 100.49 101.955 100.623C101.797 100.69 101.635 100.745 101.469 100.787C101.205 100.857 100.934 100.898 100.661 100.909C99.5821 100.617 98.7733 100.747 98.1829 101.068C98.0308 101.15 97.888 101.249 97.7569 101.361C96.8052 102.17 96.63 103.518 96.63 103.518C96.63 102.709 96.3065 101.585 96.0207 100.733C95.778 100.005 95.5543 99.4689 95.5543 99.4689C91.8688 91.3809 91.7799 86.307 92.2867 85.7894C92.7936 85.2718 92.5294 84.9617 92.5294 84.9617L94.7913 83.7188C94.7829 83.9713 94.8717 84.2174 95.0393 84.4063C95.2536 84.605 95.5344 84.7165 95.8266 84.719C96.7378 84.835 97.7973 85.7813 98.8677 87.1239C101.995 91.0277 105.209 98.2988 105.209 98.2988Z" fill="#272727"/>
<path opacity="0.5" d="M105.209 98.2988C103.672 97.8162 103.189 99.3503 103.189 99.3503C103.173 99.4024 103.154 99.4537 103.133 99.5039C103.051 99.695 102.939 99.8717 102.801 100.027C102.567 100.286 102.278 100.49 101.955 100.623C101.797 100.69 101.635 100.745 101.469 100.787C101.205 100.857 100.934 100.898 100.661 100.909C99.5822 100.617 98.7734 100.747 98.1829 101.068C98.0309 101.15 97.8881 101.249 97.757 101.361C96.8053 102.17 96.6301 103.518 96.6301 103.518C96.6301 102.709 96.3065 101.585 96.0208 100.733C98.0131 96.6893 98.6628 90.8228 98.8731 87.1212C101.995 91.0277 105.209 98.2988 105.209 98.2988Z" fill="#242424"/>
<path d="M97.2473 83.8833C96.8973 83.0978 96.2551 82.4794 95.4569 82.1593C94.6587 81.8392 93.7672 81.8426 92.9715 82.1686C92.1762 82.4946 91.539 83.1172 91.1948 83.9048C90.8506 84.6923 90.8265 85.5829 91.1274 86.3879L92.0279 88.5878L98.1532 86.0806L97.2527 83.8779L97.2473 83.8833Z" fill="#FBB03B"/>
<path d="M92.815 83.3414C89.9735 80.3246 89.437 75.8708 89.286 72.3283C89.2644 71.8025 89.2455 71.266 89.2294 70.7484C89.1269 67.5806 89.0191 64.3077 87.7142 61.4957C85.8459 57.4814 81.4865 54.5185 76.054 53.5749C71.0772 52.7095 65.9602 53.4751 61.013 54.2192L60.7974 52.785C65.8578 52.0274 71.0934 51.2402 76.302 52.1487C82.2009 53.1732 86.9566 56.4407 89.0272 60.8865C90.4587 63.9653 90.5693 67.3892 90.6771 70.7026C90.6933 71.2175 90.7095 71.7486 90.7337 72.2663C90.8739 75.5581 91.3565 79.6803 93.8692 82.3466L92.815 83.3414Z" fill="#FBB03B"/>
<path d="M57.935 58.301C61.5036 58.2449 64.3652 56.2081 64.3266 53.7516C64.288 51.2952 61.3638 49.3492 57.7952 49.4053C54.2267 49.4614 51.365 51.4982 51.4036 53.9547C51.4422 56.4111 54.3664 58.3571 57.935 58.301Z" fill="#292929"/>
<path d="M57.9108 56.7729C61.4794 56.7169 64.3411 54.68 64.3025 52.2236C64.2639 49.7671 61.3397 47.8212 57.7711 47.8772C54.2025 47.9333 51.3409 49.9701 51.3794 52.4266C51.418 54.8831 54.3422 56.829 57.9108 56.7729Z" fill="#333333"/>
</g>
<defs>
<clipPath id="clip0_36_75">
<rect width="119.12" height="119.12" fill="white"/>
</clipPath>
</defs>
</svg>
