<svg width="198" height="198" viewBox="0 0 198 198" fill="none" xmlns="http://www.w3.org/2000/svg">
<g clip-path="url(#clip0_14_513)">
<path d="M98.995 197.99C153.668 197.99 197.99 153.668 197.99 98.995C197.99 44.3216 153.668 0 98.995 0C44.3216 0 0 44.3216 0 98.995C0 153.668 44.3216 197.99 98.995 197.99Z" fill="#F4DCB0"/>
<path d="M112.345 26.8701H98.995V37.5332H112.345C116.596 37.5407 120.671 39.2328 123.677 42.2387C126.683 45.2446 128.375 49.3194 128.382 53.5705V69.2965H139.046V53.5705C139.038 46.4914 136.223 39.7043 131.217 34.6987C126.211 29.693 119.424 26.8776 112.345 26.8701Z" fill="#881818"/>
<path d="M83.3538 26.8701C76.2747 26.8776 69.4877 29.693 64.4821 34.6987C59.4764 39.7043 56.6609 46.4914 56.6534 53.5705V69.2965H67.3166V53.5705C67.3241 49.3194 69.0161 45.2446 72.0221 42.2387C75.028 39.2328 79.1028 37.5407 83.3538 37.5332H98.995V26.8701H83.3538Z" fill="#A01B1B"/>
<path d="M145.353 62.9325H98.995V154.149H145.353C149.104 154.149 152.701 152.659 155.353 150.007C158.005 147.355 159.495 143.758 159.495 140.007V77.0747C159.495 73.3239 158.005 69.7269 155.353 67.0747C152.701 64.4225 149.104 62.9325 145.353 62.9325Z" fill="#A01B1B"/>
<path d="M52.6088 62.9325C48.8581 62.9325 45.261 64.4225 42.6088 67.0747C39.9566 69.7269 38.4667 73.3239 38.4667 77.0747V140.007C38.4667 143.758 39.9566 147.355 42.6088 150.007C45.261 152.659 48.8581 154.149 52.6088 154.149H98.995V62.9325H52.6088Z" fill="#E02725"/>
<path d="M98.995 76.2544V140.318C107.494 140.318 115.645 136.942 121.655 130.932C127.665 124.923 131.041 116.771 131.041 108.272C131.041 104.065 130.212 99.8995 128.601 96.013C126.99 92.1266 124.629 88.5957 121.653 85.6222C118.677 82.6487 115.144 80.2909 111.256 78.6836C107.369 77.0762 103.202 76.2507 98.995 76.2544Z" fill="#C9C9C9"/>
<path d="M66.9489 108.272C66.9489 116.771 70.3252 124.923 76.335 130.932C82.3448 136.942 90.4959 140.318 98.995 140.318V76.2544C90.5008 76.2544 82.354 79.6268 76.345 85.6305C70.336 91.6342 66.9564 99.778 66.9489 108.272Z" fill="white"/>
<path d="M116.673 102.813H104.454V90.5946C104.446 89.1491 103.869 87.7649 102.847 86.7428C101.825 85.7206 100.44 85.1431 98.995 85.1357V131.437C100.44 131.43 101.825 130.852 102.847 129.83C103.869 128.808 104.446 127.424 104.454 125.978V113.759H116.673C118.12 113.759 119.509 113.184 120.533 112.161C121.556 111.137 122.132 109.748 122.132 108.301C122.135 107.581 121.997 106.868 121.724 106.203C121.451 105.537 121.05 104.932 120.543 104.422C120.035 103.912 119.432 103.508 118.768 103.232C118.104 102.955 117.392 102.813 116.673 102.813Z" fill="#192A3A"/>
<path d="M93.6492 90.5946V102.813H81.4304C80.7112 102.813 79.999 102.955 79.3349 103.232C78.6707 103.508 78.0677 103.912 77.5604 104.422C77.0531 104.932 76.6516 105.537 76.3789 106.203C76.1063 106.868 75.9678 107.581 75.9716 108.301C75.9716 109.748 76.5467 111.137 77.5704 112.161C78.5942 113.184 79.9826 113.759 81.4304 113.759H93.6492V125.978C93.6492 127.426 94.2244 128.814 95.2481 129.838C96.2718 130.862 97.6603 131.437 99.1081 131.437V85.1357C97.6603 85.1357 96.2718 85.7108 95.2481 86.7346C94.2244 87.7583 93.6492 89.1468 93.6492 90.5946Z" fill="#20364F"/>
</g>
<defs>
<clipPath id="clip0_14_513">
<rect width="197.99" height="197.99" fill="white"/>
</clipPath>
</defs>
</svg>
