<svg width="120" height="120" viewBox="0 0 120 120" fill="none" xmlns="http://www.w3.org/2000/svg">
<g clip-path="url(#clip0_34_62)">
<path d="M119.12 60.2759C119.119 68.0076 117.576 75.6631 114.581 82.8053C111.585 89.9475 107.196 96.4362 101.663 101.901C96.1294 107.365 89.5613 111.699 82.3335 114.653C75.1056 117.608 67.3597 119.126 59.5383 119.12C43.7507 119.12 28.6097 112.92 17.4461 101.885C6.28261 90.8496 0.0109863 75.8823 0.0109863 60.2759C0.0109861 44.6685 6.28226 29.7002 17.4455 18.6631C28.6087 7.62595 43.7497 1.42388 59.5383 1.42102C75.3288 1.42102 90.4726 7.62183 101.638 18.6593C112.804 29.6967 119.077 44.6666 119.077 60.2759" fill="#F49A44"/>
<path d="M71.1582 46.636C71.1582 48.1864 70.5352 49.6733 69.4262 50.7695C68.3172 51.8658 66.8131 52.4817 65.2447 52.4817C63.6754 52.4817 62.1701 51.8662 61.0594 50.7702C59.9486 49.6742 59.3232 48.1874 59.3203 46.636C59.3203 45.8669 59.4735 45.1054 59.7713 44.3949C60.069 43.6843 60.5054 43.0388 61.0555 42.495C61.6057 41.9511 62.2588 41.5197 62.9776 41.2254C63.6963 40.9311 64.4667 40.7796 65.2447 40.7796C66.0222 40.7796 66.7921 40.9312 67.5103 41.2256C68.2284 41.5201 68.8808 41.9517 69.4301 42.4956C69.9793 43.0396 70.4147 43.6853 70.7112 44.3957C71.0078 45.1062 71.1597 45.8675 71.1582 46.636Z" fill="#2B3A49"/>
<path d="M57.0116 33.6636C57.0116 35.0456 56.4563 36.3709 55.4678 37.348C54.4793 38.3252 53.1386 38.8742 51.7406 38.8742C50.3417 38.8742 48.9998 38.3256 48.0096 37.3487C47.0194 36.3719 46.4616 35.0465 46.4587 33.6636C46.4587 32.2789 47.0152 30.9509 48.0058 29.9717C48.9963 28.9925 50.3398 28.4424 51.7406 28.4424C53.1396 28.4453 54.4802 28.9966 55.4684 29.9755C56.4566 30.9544 57.0116 32.2807 57.0116 33.6636Z" fill="white"/>
<path d="M72.7048 46.636L94.0175 30.434C94.0175 30.434 98.3737 29.7665 100.552 37.0117C102.73 44.2568 99.6479 46.636 99.6479 46.636L73.0316 48.0248L72.7048 46.636Z" fill="#2B3A49"/>
<path d="M99.9093 37.7869C100.998 41.9639 100.301 45.7426 98.3955 46.2162C96.4897 46.6899 94.0394 43.6971 92.9503 39.5201C91.8613 35.3431 92.5583 31.5751 94.4641 31.0907C96.3699 30.6062 98.8421 33.6099 99.9093 37.7869Z" fill="#E28234"/>
<path d="M43.6926 32.5009L21.3453 26.0417C21.3453 26.0417 17.501 26.7845 17.8931 33.5237C18.2851 40.2629 21.5849 41.3394 21.5849 41.3394L43.6926 34.1589V32.5009Z" fill="white"/>
<path d="M18.9712 33.9328C19.3088 37.3777 20.8553 40.0368 22.4235 39.8969C23.9917 39.7569 24.9937 36.8287 24.6016 33.4376C24.2095 30.0465 22.7284 27.3227 21.1493 27.4735C19.5702 27.6242 18.6336 30.4986 18.9712 33.9328Z" fill="#E28234"/>
<path d="M58.656 52.4494L39.1294 71.3536C39.1294 71.3536 39.1294 72.4301 40.5887 72.4301C42.0481 72.4301 57.0116 60.5881 57.0116 60.5881V74.5832C57.0116 74.5832 53.6028 100.42 53.2652 101.852C52.9276 103.284 55.1493 103.166 55.7374 101.852L66.0507 78.9002C66.0507 78.9002 75.2531 100.431 75.8521 101.852C76.451 103.273 78.8687 103.779 78.5529 101.852C78.2371 99.9252 74.6214 74.9385 74.6214 74.9385L73.8373 59.0917C73.8373 59.0917 80.5676 61.5247 81.9181 61.3094C83.2685 61.0941 83.0071 58.7579 83.0071 58.7579C83.0071 58.7579 83.4536 50.3286 83.0071 49.5535C82.5606 48.7784 80.7637 49.5535 80.7637 49.5535L78.9667 55.6467L71.1692 52.4924C69.6857 53.5406 67.9798 54.2402 66.1813 54.5379C63.1429 54.7532 58.656 52.4494 58.656 52.4494Z" fill="#2B3A49"/>
<path d="M55.5087 64.2914L51.2505 67.3165C51.2505 67.3165 54.2345 75.6383 55.2146 75.4552C56.1948 75.2722 55.5087 64.2914 55.5087 64.2914Z" fill="white"/>
<path d="M38.6829 74.5617V82.1729C38.6829 82.1729 38.9115 82.9911 39.5868 82.6251C40.262 82.259 43.7143 73.399 43.7143 73.399L38.6829 74.5617Z" fill="white"/>
<path d="M34.6534 36.2366L33.8584 46.636L34.6534 47.099L42.048 44.3323L40.3709 67.5211L56.467 51.8896V46.636H57.0115C57.034 44.9708 57.6556 43.3679 58.7649 42.1146C58.5382 41.4587 58.1693 40.8598 57.6839 40.3595C57.1986 39.8593 56.6086 39.47 55.9552 39.2187C54.64 40.3029 52.9611 40.8599 51.2505 40.7796C48.3863 40.7796 48.7348 40.306 46.5894 39.2187C43.8559 37.8407 36.6681 42.7605 36.6681 42.7605V36.2151" fill="white"/>
</g>
<defs>
<clipPath id="clip0_34_62">
<rect width="119.12" height="119.12" fill="white"/>
</clipPath>
</defs>
</svg>
