<svg width="119" height="120" viewBox="0 0 119 120" fill="none" xmlns="http://www.w3.org/2000/svg">
<path d="M119.12 59.5612C119.123 47.7805 115.632 36.2634 109.09 26.4667C102.547 16.6699 93.246 9.03346 82.3631 4.52311C71.4801 0.012756 59.5042 -1.16892 47.9497 1.12757C36.3952 3.42405 25.7811 9.09553 17.45 17.4247C9.11891 25.7539 3.44491 36.3667 1.14556 47.9208C-1.1538 59.475 0.0248053 71.4516 4.53232 82.3358C9.03983 93.2201 16.6738 102.523 26.4687 109.069C36.2636 115.614 47.7795 119.107 59.56 119.107C75.3537 119.107 90.5008 112.834 101.67 101.668C112.839 90.501 119.116 75.3552 119.12 59.5612Z" fill="#3E5E84"/>
<mask id="mask0_112_12" style="mask-type:alpha" maskUnits="userSpaceOnUse" x="0" y="-1" width="120" height="121">
<path d="M119.015 59.5612C119.018 47.7805 115.53 36.2634 108.994 26.4667C102.457 16.6699 93.1638 9.03346 82.2905 4.52311C71.4171 0.012756 59.4517 -1.16892 47.9074 1.12757C36.3631 3.42405 25.7584 9.09553 17.4346 17.4247C9.11087 25.7539 3.44187 36.3667 1.14455 47.9208C-1.15278 59.475 0.0247834 71.4516 4.52832 82.3358C9.03187 93.2201 16.6591 102.523 26.4454 109.069C36.2316 115.614 47.7374 119.107 59.5075 119.107C75.2873 119.107 90.421 112.834 101.58 101.668C112.74 90.501 119.011 75.3552 119.015 59.5612Z" fill="#3E5E84"/>
</mask>
<g mask="url(#mask0_112_12)">
<path d="M92.5922 52.4427H83.1544V121.976H92.5922V52.4427Z" fill="#C2C8CC"/>
<path d="M23.632 115.293V22.3618H87.1456V115.293C87.0866 116.773 87.5182 118.23 88.3731 119.439C89.2279 120.648 90.4581 121.54 91.8721 121.976H29.9788C23.4819 121.976 23.632 115.293 23.632 115.293Z" fill="#F8F7F2"/>
<path d="M92.5172 121.976C97.9938 121.976 97.7838 117.305 97.7838 117.305V52.4427H92.5922L92.5172 121.976Z" fill="#F8F7F2"/>
<path d="M82.6893 25.9961H27.6981V39.7826H82.6893V25.9961Z" fill="#DE3F18"/>
<path d="M27.6981 39.7976H82.6893V25.9961L27.6981 39.7976Z" fill="#B22E14"/>
<path d="M82.6894 44.0176H60.8879V65.4182H82.6894V44.0176Z" fill="#C2C8CC"/>
<path d="M56.9867 44.0176H27.6981V48.0424H56.9867V44.0176Z" fill="#C2C8CC"/>
<path d="M56.9867 52.8482H27.6981V56.873H56.9867V52.8482Z" fill="#C2C8CC"/>
<path d="M56.9867 61.4084H27.6981V65.4332H56.9867V61.4084Z" fill="#C2C8CC"/>
<path d="M45.8535 36.1632L42.7626 32.0483V36.1632H41.4872V29.6304H42.2374L45.3283 33.7453V29.6304H46.6187V36.1632H45.8535Z" fill="white"/>
<path d="M52.2904 32.2435V33.46H49.4696V34.9618H52.4705V36.1782H48.1191V29.6454H52.4705V30.8619H49.4696V32.2435H52.2904Z" fill="white"/>
<path d="M59.7926 36.1632L58.2921 32.2435L56.7017 36.1632H55.9515L53.3107 29.6304H54.8111L56.3116 33.7904L57.917 29.6304H58.6673L60.2727 33.7904L61.8482 29.6304H63.2736L60.6478 36.1632H59.7926Z" fill="white"/>
<path d="M66.1995 29.5704C67.1395 29.6089 68.032 29.994 68.7052 30.6517L67.865 31.4326C67.3882 31.0531 66.8073 30.8279 66.1995 30.7868C65.7644 30.7868 65.0742 30.937 65.0742 31.5077C65.0742 32.0784 65.5693 32.0784 66.1545 32.1535H66.6797C68.0001 32.3036 68.9903 32.7992 68.9903 34.1508C68.9903 35.5024 67.895 36.1632 66.4546 36.1783C65.9226 36.1936 65.3946 36.0817 64.9144 35.8519C64.4342 35.622 64.0157 35.2809 63.6937 34.8567L64.534 34.0757C64.7614 34.3649 65.054 34.5959 65.3879 34.7499C65.7217 34.9039 66.0873 34.9765 66.4546 34.9618C67.2048 34.9618 67.7 34.6464 67.7 34.1508C67.7 33.6552 67.1747 33.43 66.4995 33.3399H65.9894C64.7441 33.1897 63.7837 32.6941 63.7837 31.5377C63.7837 30.3813 64.8491 29.5703 66.1995 29.5553V29.5704Z" fill="white"/>
<path d="M82.6893 70.0888H27.6981V74.0986H82.6893V70.0888Z" fill="#C2C8CC"/>
<path d="M82.6893 78.7842H67.2648V82.809H82.6893V78.7842Z" fill="#C2C8CC"/>
<path d="M82.6893 87.1042H67.2648V91.1139H82.6893V87.1042Z" fill="#C2C8CC"/>
<path d="M82.6893 95.7995H67.2648V99.8243H82.6893V95.7995Z" fill="#C2C8CC"/>
<path d="M43.8279 78.7842H27.6981V82.809H43.8279V78.7842Z" fill="#C2C8CC"/>
<path d="M43.8279 87.1042H27.6981V91.1139H43.8279V87.1042Z" fill="#C2C8CC"/>
<path d="M43.8279 95.7995H27.6981V99.8243H43.8279V95.7995Z" fill="#C2C8CC"/>
<path d="M82.6893 95.8746H67.2648V99.8844H82.6893V95.8746Z" fill="#C2C8CC"/>
<path d="M82.6893 104.555H67.2648V108.58H82.6893V104.555Z" fill="#C2C8CC"/>
<path d="M43.8279 95.8746H27.6981V99.8844H43.8279V95.8746Z" fill="#C2C8CC"/>
<path d="M43.8279 104.555H27.6981V108.58H43.8279V104.555Z" fill="#C2C8CC"/>
<path d="M82.6893 104.51H43.8129V108.52H82.6893V104.51Z" fill="#C2C8CC"/>
<path d="M82.6893 113.19H42.5975V117.215H82.6893V113.19Z" fill="#C2C8CC"/>
<path d="M43.8279 104.51H27.6981V108.52H43.8279V104.51Z" fill="#C2C8CC"/>
<path d="M43.8279 113.19H27.6981V117.215H43.8279V113.19Z" fill="#C2C8CC"/>
<path d="M41.4722 80.9618H68.9002L64.3989 75.8257H45.9885L41.4722 80.9618Z" fill="#C2C8CC"/>
<path d="M70.0256 86.4884H41.4722V91.6396H70.0256V86.4884Z" fill="#C2C8CC"/>
<path d="M48.2392 102.768H63.2736L68.9002 97.6167H41.4722L48.2392 102.768Z" fill="#C2C8CC"/>
<path opacity="0.5" d="M69.2904 85.9327C68.7862 83.2499 67.4984 80.777 65.5899 78.8268C63.6815 76.8766 61.2381 75.5366 58.5688 74.9764C55.8995 74.4161 53.1241 74.6608 50.5937 75.6795C48.0633 76.6981 45.8915 78.4449 44.3531 80.699C42.8146 82.9531 41.9786 85.6133 41.9507 88.343C41.9228 91.0727 42.7042 93.7494 44.1963 96.0345C45.6884 98.3196 47.824 100.111 50.3331 101.181C52.8421 102.251 55.6119 102.552 58.2921 102.047C61.8853 101.369 65.0624 99.2911 67.1249 96.2693C69.1874 93.2474 69.9663 89.5293 69.2904 85.9327Z" fill="white"/>
<path d="M63.1403 110.792L56.6378 112.018L61.5384 138.052L68.0409 136.826L63.1403 110.792Z" fill="#0B2738"/>
<path d="M59.5513 103.547L57.3842 103.957L63.7361 137.572L65.9033 137.162L59.5513 103.547Z" fill="#0B2738"/>
<path d="M64.804 137.384L63.7237 137.594L57.3918 103.969L58.4722 103.759L64.804 137.384Z" fill="#103754"/>
<path d="M59.9347 111.301L56.6907 111.912L61.5822 137.947L64.8262 137.337L59.9347 111.301Z" fill="#103754"/>
<path d="M54.2859 84.8064C54.1266 83.9763 53.7252 83.2119 53.1325 82.6098C52.5398 82.0077 51.7822 81.5947 50.9553 81.4229C50.1284 81.2512 49.2691 81.3284 48.4859 81.6448C47.7028 81.9611 47.0308 82.5025 46.5546 83.2007C46.0785 83.8988 45.8195 84.7224 45.8104 85.5677C45.8013 86.4129 46.0425 87.242 46.5035 87.9502C46.9645 88.6585 47.6248 89.2142 48.4009 89.5474C49.1771 89.8806 50.0345 89.9763 50.8649 89.8224C51.983 89.6111 52.9716 88.964 53.6131 88.0234C54.2546 87.0827 54.4967 85.9256 54.2859 84.8064Z" fill="white"/>
<path d="M56.0414 78.5439C55.9734 78.1826 55.8002 77.8496 55.5435 77.5867C55.2867 77.3238 54.9579 77.1429 54.5986 77.0667C54.2393 76.9905 53.8656 77.0224 53.5244 77.1585C53.1832 77.2945 52.8898 77.5286 52.6813 77.8312C52.4728 78.1338 52.3585 78.4915 52.3526 78.859C52.3468 79.2266 52.4499 79.5876 52.6487 79.8967C52.8476 80.2058 53.1334 80.449 53.4701 80.5958C53.8068 80.7426 54.1794 80.7863 54.5409 80.7215C55.0276 80.6302 55.4584 80.3501 55.7395 79.9422C56.0205 79.5342 56.1291 79.0316 56.0414 78.5439Z" fill="white"/>
<path d="M52.5454 72.2514L53.0556 74.9697C54.8339 74.6344 56.6608 74.653 58.4319 75.0244C60.203 75.3957 61.8837 76.1126 63.378 77.1341C64.8723 78.1556 66.1509 79.4618 67.1409 80.9779C68.1309 82.494 68.8128 84.1904 69.1478 85.9703C69.4828 87.7502 69.4642 89.5787 69.0931 91.3514C68.7221 93.1241 68.0058 94.8064 66.9852 96.302C65.9647 97.7977 64.6598 99.0774 63.145 100.068C61.6303 101.059 59.9353 101.742 58.157 102.077L58.6672 104.78C60.8012 104.378 62.8351 103.559 64.6528 102.37C66.4705 101.181 68.0364 99.645 69.2611 97.8502C70.4858 96.0554 71.3453 94.0368 71.7905 91.9095C72.2358 89.7823 72.258 87.5881 71.8561 85.4522C71.4541 83.3163 70.6358 81.2806 69.4478 79.4613C68.2598 77.6419 66.7255 76.0746 64.9323 74.8488C63.1391 73.623 61.1223 72.7627 58.9969 72.3171C56.8716 71.8714 54.6794 71.8491 52.5454 72.2514Z" fill="#0B2738"/>
<path d="M42.0574 91.0689C41.3859 87.4746 42.1669 83.7604 44.229 80.7419C46.291 77.7234 49.4656 75.6474 53.0557 74.9696L52.5455 72.2514C48.2358 73.0639 44.4251 75.5567 41.9517 79.1814C39.4783 82.8062 38.5448 87.2659 39.3566 91.5795C40.1684 95.8931 42.659 99.7072 46.2804 102.183C49.9019 104.658 54.3576 105.593 58.6673 104.78L58.1571 102.077C54.5638 102.754 50.8491 101.974 47.83 99.9096C44.8108 97.8453 42.7344 94.6653 42.0574 91.0689Z" fill="#103754"/>
</g>
</svg>
