<svg width="198" height="198" viewBox="0 0 198 198" fill="none" xmlns="http://www.w3.org/2000/svg">
<g clip-path="url(#clip0_15_524)">
<path d="M98.995 197.99C153.668 197.99 197.99 153.668 197.99 98.995C197.99 44.3216 153.668 0 98.995 0C44.3216 0 0 44.3216 0 98.995C0 153.668 44.3216 197.99 98.995 197.99Z" fill="#EA5150"/>
<path d="M98.995 112.916C106.683 112.916 112.916 106.683 112.916 98.995C112.916 91.3065 106.683 85.0738 98.995 85.0738C91.3066 85.0738 85.0739 91.3065 85.0739 98.995C85.0739 106.683 91.3066 112.916 98.995 112.916Z" fill="#FFED33"/>
<path d="M106.234 87.1311C107.566 89.311 108.272 91.8154 108.276 94.3701C108.274 96.8402 107.614 99.2653 106.366 101.397C105.117 103.528 103.323 105.288 101.17 106.498C99.0156 107.707 96.5787 108.321 94.1089 108.277C91.6392 108.234 89.2255 107.534 87.1156 106.249C88.3568 108.288 90.1013 109.974 92.1816 111.144C94.2619 112.314 96.6082 112.93 98.995 112.932C113.024 112.932 118.206 94.3701 106.234 87.1311Z" fill="#FAC900"/>
<path d="M98.9951 173.257C80.913 173.257 71.1527 135.004 71.1527 99.0105C71.1527 63.0165 80.913 24.7642 98.9951 24.7642C117.077 24.7642 126.837 63.0165 126.837 99.0105C126.837 135.004 117.077 173.257 98.9951 173.257ZM98.9951 30.9514C88.7553 30.9514 77.3399 58.902 77.3399 99.0105C77.3399 139.119 88.7553 167.07 98.9951 167.07C109.235 167.07 120.65 139.119 120.65 99.0105C120.65 58.902 109.235 30.9514 98.9951 30.9514Z" fill="#FEF6E4"/>
<path d="M85.0739 49.4975C90.1995 49.4975 94.3547 45.3424 94.3547 40.2167C94.3547 35.0911 90.1995 30.9359 85.0739 30.9359C79.9482 30.9359 75.7931 35.0911 75.7931 40.2167C75.7931 45.3424 79.9482 49.4975 85.0739 49.4975Z" fill="#9CCA5A"/>
<path d="M89.8998 32.3126C90.7924 33.7581 91.2639 35.4242 91.261 37.1231C91.2596 38.7699 90.8201 40.3866 89.9875 41.8074C89.155 43.2282 87.9594 44.402 86.5235 45.2081C85.0875 46.0142 83.4629 46.4238 81.8164 46.3947C80.1699 46.3657 78.5608 45.8991 77.1542 45.0427C77.9797 46.4048 79.1419 47.5315 80.5289 48.3144C81.9159 49.0973 83.4811 49.51 85.0738 49.513C87.096 49.5102 89.0619 48.8471 90.6726 47.6244C92.2833 46.4017 93.4506 44.6864 93.9968 42.7393C94.5431 40.7923 94.4385 38.7202 93.699 36.8381C92.9594 34.956 91.6254 33.3669 89.8998 32.3126Z" fill="#8DB551"/>
<path d="M145.445 143.636C129.9 143.636 107.332 135.902 85.1202 123.11C53.9058 105.198 25.6613 77.5409 34.6946 61.8873C36.6745 58.4689 41.3768 54.3854 52.5601 54.3854C68.0281 54.3854 90.6577 62.1194 112.885 74.9114C129.637 84.5788 144.115 95.9788 153.628 106.992C163.852 118.84 167.286 129.188 163.264 136.134C161.315 139.552 156.613 143.636 145.445 143.636ZM40.062 64.9809C34.9421 73.8595 53.4418 97.7112 88.1674 117.773C122.011 137.309 152.7 142.12 157.943 133.04C160.465 128.678 157.108 120.449 148.972 111.045C139.892 100.526 125.987 89.5905 109.823 80.2633C75.7466 60.5726 45.2592 55.9631 40.062 64.9809Z" fill="#FEF6E4"/>
<path d="M152.22 124.378C151.165 123.768 150.24 122.956 149.498 121.988C148.757 121.02 148.213 119.916 147.899 118.738C147.584 117.56 147.505 116.332 147.665 115.123C147.825 113.915 148.222 112.749 148.833 111.694C150.063 109.564 152.087 108.009 154.463 107.371C156.838 106.733 159.37 107.064 161.501 108.291C162.558 108.9 163.484 109.711 164.227 110.679C164.97 111.646 165.515 112.75 165.832 113.928C166.148 115.106 166.228 116.334 166.069 117.544C165.91 118.753 165.514 119.919 164.904 120.975C164.295 122.032 163.484 122.958 162.517 123.701C161.55 124.444 160.445 124.989 159.268 125.305C158.09 125.621 156.861 125.702 155.652 125.543C154.442 125.384 153.276 124.988 152.22 124.378Z" fill="#9CCA5A"/>
<path d="M161.702 108.43C162.773 110.209 163.217 112.295 162.962 114.356C162.708 116.416 161.769 118.332 160.298 119.796C158.826 121.26 156.906 122.189 154.845 122.434C152.783 122.678 150.699 122.225 148.926 121.145C149.761 122.525 150.942 123.663 152.351 124.448C153.761 125.232 155.35 125.636 156.963 125.618C158.576 125.601 160.157 125.164 161.55 124.35C162.942 123.535 164.098 122.372 164.904 120.975C166.11 118.879 166.45 116.395 165.852 114.052C165.254 111.709 163.765 109.692 161.702 108.43Z" fill="#8DB551"/>
<path d="M34.6947 136.134C25.6614 120.48 53.9059 92.9006 85.0739 74.9114C118.624 55.5455 154.773 47.069 163.295 61.8873C167.317 68.8479 163.883 79.196 153.659 91.0445C144.146 102.058 129.668 113.458 112.916 123.125C79.3353 142.506 43.2176 150.875 34.6947 136.134ZM88.1675 80.2633C53.4419 100.372 34.9422 124.177 40.0621 133.04C45.182 141.903 75.7158 137.464 109.823 117.773C144.687 97.6648 163.017 73.7822 157.943 64.9809C152.87 56.1797 122.475 60.4488 88.1675 80.2478V80.2633Z" fill="#FEF6E4"/>
<path d="M50.4101 132.406C51.4662 131.796 52.6322 131.4 53.8414 131.241C55.0506 131.082 56.2793 131.162 57.4573 131.478C58.6353 131.794 59.7394 132.34 60.7066 133.083C61.6738 133.826 62.485 134.752 63.0939 135.809C64.3211 137.94 64.652 140.472 64.0139 142.847C63.3758 145.222 61.821 147.247 59.6909 148.477C57.5613 149.706 55.0312 150.039 52.6561 149.404C50.281 148.769 48.2549 147.217 47.0227 145.09C46.4119 144.034 46.0151 142.869 45.8548 141.661C45.6946 140.452 45.774 139.224 46.0886 138.046C46.4031 136.868 46.9467 135.764 47.6882 134.796C48.4297 133.828 49.3547 133.016 50.4101 132.406Z" fill="#9CCA5A"/>
<path d="M59.9539 132.514C61.0387 134.289 61.496 136.376 61.2522 138.442C61.0085 140.508 60.0779 142.432 58.6098 143.905C57.1417 145.379 55.2212 146.316 53.1564 146.567C51.0917 146.819 49.0024 146.369 47.2238 145.291C48.488 147.351 50.5062 148.836 52.8489 149.431C55.1916 150.026 57.6741 149.684 59.7683 148.477C61.1629 147.672 62.3239 146.517 63.1371 145.127C63.9503 143.737 64.3878 142.159 64.4065 140.548C64.4253 138.938 64.0246 137.35 63.2439 135.942C62.4632 134.533 61.3294 133.352 59.9539 132.514Z" fill="#8DB551"/>
</g>
<defs>
<clipPath id="clip0_15_524">
<rect width="197.99" height="197.99" fill="white"/>
</clipPath>
</defs>
</svg>
