<?xml version="1.0" encoding="UTF-8"?>
<svg width="22px" height="22px" viewBox="0 0 22 22" version="1.1" xmlns="http://www.w3.org/2000/svg" xmlns:xlink="http://www.w3.org/1999/xlink">
    <!-- Generator: Sketch 61.2 (89653) - https://sketch.com -->
    <title>bell</title>
    <desc>Created with Sketch.</desc>
    <g id="Symbols" stroke="none" stroke-width="1" fill="none" fill-rule="evenodd" stroke-linecap="round" stroke-linejoin="round">
        <g id="Navbar" transform="translate(-998.000000, -29.000000)" stroke="#535875" stroke-width="2">
            <g id="Notification">
                <g transform="translate(999.000000, 25.000000)">
                    <g id="bell" transform="translate(0.000000, 5.000000)">
                        <path d="M20,15.0000001 L0,15.0000001 C1.65685425,15.0000001 3,13.6568542 3,12.0000001 L3,7.0000001 C3,3.13400679 6.13400679,1.04308127e-07 10,1.04308127e-07 C13.8659932,1.04308127e-07 17,3.13400679 17,7.0000001 L17,12.0000001 C17,13.6568542 18.3431458,15.0000001 20,15.0000001 L20,15.0000001 Z M11.73,19 C11.3722022,19.6168043 10.7130686,19.9964563 10,19.9964563 C9.28693139,19.9964563 8.62779776,19.6168043 8.27,19 L11.73,19 Z" id="Shape"></path>
                    </g>
                </g>
            </g>
        </g>
    </g>
</svg>