<svg width="1092" height="772" viewBox="0 0 1092 772" fill="none" xmlns="http://www.w3.org/2000/svg">
<g clip-path="url(#clip0_111_3967)">
<path d="M5.18972 606.154C15.4501 650.989 58.1932 793.634 352.256 755.594C553.564 729.556 865.163 786.839 923.294 625.177C973.94 484.313 1045.2 247.549 966.031 168.706C730.099 -66.3166 593.322 304.561 290.711 199.956C103.684 135.313 -28.2541 459.993 5.18972 606.154Z" fill="#EDF3FA"/>
<path d="M580.608 257.035C575.52 284.651 559.369 309.654 532.958 320.882C531.635 321.447 530.482 319.497 531.827 318.926C557.764 307.902 573.468 283.548 578.443 256.436C578.703 255.006 580.885 255.611 580.619 257.035H580.608Z" fill="#3A1013"/>
<path d="M754.186 302.532C751.218 327.971 754.961 354.105 763.712 378.102C764.215 379.47 762.016 380.064 761.535 378.701C752.722 354.546 748.935 328.134 751.925 302.532C752.095 301.101 754.356 301.084 754.186 302.532Z" fill="#3A1013"/>
<path d="M613.249 433.339C613.249 433.339 515.393 408.092 509.056 404.61C502.719 401.127 523.958 382.992 527.627 374.767C531.296 366.542 505.529 397.775 499.559 396.43C493.589 395.084 473.176 389.261 470.372 386.695C470.372 386.695 520.312 345.207 534.71 330.871C576.752 289.004 575.571 261.394 590.54 235.203C605.51 209.012 670.916 205.326 679.136 214.908C687.355 224.49 669.005 356.977 650.26 382.806C631.514 408.635 613.249 433.339 613.249 433.339Z" fill="#3A1013"/>
<path d="M602.943 413.169C602.943 413.169 526.061 516.259 573.801 537.814C602.236 550.652 709.787 455.279 722.077 435.493C732.252 419.172 698.023 436.442 686.513 414.955C675.003 393.467 697.536 342.686 704.563 331.509C711.59 320.333 590.732 351.742 597.239 357.514C616.075 374.151 602.943 413.169 602.943 413.169Z" fill="#FD9E83"/>
<path d="M604.017 407.481C615.827 410.133 662.064 386.48 674.862 361.742C680.515 350.809 688.006 340.933 692.952 329.672C664.523 333.245 597.047 351.601 600.4 357.418C607.505 369.724 610.128 387.566 604.017 407.481Z" fill="#EF846F"/>
<path d="M590.478 427.313C590.478 427.313 585.843 410.398 554.96 408.618C524.077 406.837 462 385.706 451.508 385.022C409.166 382.24 326.947 318.575 314.94 361.375C302.933 404.174 302.017 409.788 315.223 426.058C338.4 454.617 479.575 531.403 507.994 538.679C536.412 545.954 590.478 427.313 590.478 427.313Z" fill="#FFB76C"/>
<path d="M581.778 417.917C574.994 417.731 561.834 418.104 531.465 429.845C503.545 440.654 487.111 476.314 470.237 499.26C461.853 510.656 365.179 452.78 354.077 449.512C349.254 448.099 344.427 446.629 339.548 445.414C363.037 466.833 487.699 533.455 508.011 538.656C531.262 544.609 541.138 454.555 577.476 434.526C568.081 433.757 591.23 418.256 581.778 417.917Z" fill="#FC9956"/>
<path d="M402.716 204.908C402.716 204.908 399.443 226.525 382.546 232.331C365.648 238.137 318.53 243.547 316.732 240.766C314.934 237.984 318.869 228.657 330.537 220.375C342.205 212.093 398.448 193.969 400.585 199.458L402.716 204.908Z" fill="#3A1013"/>
<path d="M330.396 338.225C330.396 338.225 353.325 193.087 353.263 171.012C353.201 148.937 361.816 151.011 361.816 151.011C361.816 151.011 408.307 141.593 405.492 155.472C402.677 169.35 393.462 237.967 393.377 246.232C393.292 254.497 396.633 309.383 394.248 330.673C391.862 351.962 394.898 407.555 385.203 415.435C375.508 423.316 327.677 427.211 322.73 413.519C314.68 391.297 330.396 338.225 330.396 338.225Z" fill="#FD9E83"/>
<path d="M394.253 330.673C396.639 309.383 393.298 254.497 393.382 246.232C393.439 240.5 397.905 205.762 401.551 180.362C401.416 180.928 401.286 181.493 401.144 182.058C399.354 189.235 396.481 196.097 392.625 202.409C388.95 208.249 384.355 212.89 379.154 217.006C373.766 221.268 368.181 225.429 362.194 228.606C357.214 231.24 351.651 233.501 346.026 233.954C339.327 281.802 330.407 338.276 330.407 338.276C330.407 338.276 314.691 391.347 322.724 413.57C327.671 427.262 375.479 423.384 385.197 415.486C394.914 407.589 391.873 351.962 394.253 330.673Z" fill="#EF846F"/>
<path d="M341.442 110.213C341.786 108.008 348.858 101.456 348.858 101.456C350.747 88.3919 372.647 84.4348 385.751 83.8695C388.447 83.7564 391.245 85.0001 394.004 87.0465C394.502 91.9986 397.594 98.5167 402.003 100.942C402.302 101.106 402.635 101.2 402.975 101.218C403.316 101.235 403.657 101.176 403.971 101.043C404.285 100.91 404.565 100.708 404.791 100.452C405.016 100.195 405.18 99.8913 405.271 99.5625C409.453 105.673 413.154 112.099 416.34 118.783C418.369 123.192 409.556 149.598 404.468 160.876C399.38 172.154 356.089 160.842 356.089 160.842C352.974 154.878 338.756 127.314 341.442 110.213Z" fill="#FD9E83"/>
<path d="M350.136 125.318C350.464 124.134 350.858 122.969 351.318 121.83C352.515 119.466 353.909 117.206 355.484 115.075C358.049 112.137 360.889 109.451 363.964 107.053C373.574 100.207 384.241 95.5601 394.694 90.4836C395.401 92.8749 395.887 97.0017 400.347 100.365C393.241 107.013 385.236 115.131 382.257 128.987C381.254 130.1 380.177 131.144 379.035 132.113C375.417 133.183 371.711 133.928 367.96 134.34C364.724 134.505 361.478 134.334 358.277 133.832C356.698 133.404 355.155 132.852 353.664 132.181C352.937 131.715 352.235 131.211 351.561 130.672C351.261 130.332 350.995 129.976 350.69 129.614C350.554 129.337 350.43 129.049 350.306 128.778C350.185 128.25 350.083 127.719 350 127.184C350.04 126.562 350.074 125.94 350.136 125.318Z" fill="#EF846F"/>
<path d="M390.573 34.1843C390.573 34.1843 391.201 40.6854 390.918 42.4039C390.635 44.1225 390.087 54.6146 383.784 53.9702C377.481 53.3257 378.634 44.179 378.911 42.6357C379.188 41.0924 377.328 30.8038 377.724 28.616C378.289 25.699 381.681 20.7412 387.266 24.8624C390.455 27.1914 390.573 34.1843 390.573 34.1843Z" fill="#FD9E83"/>
<path d="M391.986 47.8818C391.986 47.8818 395.808 89.7148 395.638 91.4616C395.468 93.2084 383.535 98.0983 377.203 97.8778C370.872 97.6574 378.848 58.4814 379.018 56.9155C379.188 55.3495 378.894 41.4429 379.142 39.2382C379.482 36.2873 382.195 35.0605 388.063 38.7972C391.37 40.9058 391.986 47.8818 391.986 47.8818Z" fill="#FD9E83"/>
<path d="M363.596 33.4211C363.596 33.4211 365.445 39.6848 365.49 41.4259C365.535 43.1671 366.994 53.5744 360.685 54.1341C354.376 54.6938 353.771 45.5018 353.743 43.9585C353.715 42.4152 349.944 32.6523 349.922 30.425C349.922 27.4571 352.29 21.9453 358.576 24.9245C362.121 26.5809 363.596 33.4211 363.596 33.4211Z" fill="#FD9E83"/>
<path d="M367.553 46.6042C367.553 46.6042 379.787 89.7374 379.951 91.4729C380.115 93.2084 369.973 103.621 363.715 104.605C357.457 105.589 356.665 59.5046 356.535 57.9387C356.405 56.3727 353.471 42.7714 353.302 40.5554C353.076 37.5931 355.501 35.8746 361.974 38.4298C365.626 39.877 367.553 46.6042 367.553 46.6042Z" fill="#FD9E83"/>
<path d="M336.467 44.2977C336.467 44.2977 339.802 49.9112 340.272 51.5902C340.741 53.2692 344.715 62.9925 338.734 65.0842C332.753 67.1758 329.91 58.4305 329.519 56.8872C329.129 55.3439 323.058 46.8473 322.487 44.6991C321.73 41.833 322.702 35.8972 329.525 37.2483C333.364 38.0058 336.467 44.2977 336.467 44.2977Z" fill="#FD9E83"/>
<path d="M343.545 56.0845C343.545 56.0845 365.993 94.893 366.581 96.5381C367.169 98.1832 359.888 110.761 354.065 113.249C348.243 115.736 336.156 71.2631 335.647 69.7819C335.139 68.3008 328.954 55.8244 328.242 53.7215C327.298 50.8949 329.231 48.6337 336.156 49.5325C340.023 50.0357 343.545 56.0845 343.545 56.0845Z" fill="#FD9E83"/>
<path d="M333.183 71.3252C333.183 71.3252 335.964 75.8477 336.371 77.2157C336.778 78.5838 340.136 86.4473 335.291 88.2336C330.446 90.02 328.021 82.9141 327.665 81.6817C327.309 80.4493 322.272 73.5921 321.786 71.8509C321.13 69.5219 321.842 64.6715 327.439 65.6891C330.571 66.26 333.183 71.3252 333.183 71.3252Z" fill="#FD9E83"/>
<path d="M426.222 103.486C425.227 105.634 420.744 119.184 412.716 116.07C407.843 114.176 383.145 126.584 385.847 120.473C395.616 98.4262 412.292 92.8466 412.835 92.2078C413.378 91.569 413.739 88.0358 415.662 78.075C417.629 67.9616 427.607 69.194 427.946 70.0137C430.71 76.6504 427.211 101.332 426.222 103.486Z" fill="#FD9E83"/>
<path d="M339.096 80.8507C339.096 80.8507 352.064 106.9 352.562 108.229C353.059 109.557 347.293 119.897 342.578 122.005C337.864 124.114 333.273 93.3102 332.838 92.1061C332.403 90.9019 327.185 80.8281 326.62 79.1039C325.811 76.8427 327.355 74.9545 332.991 75.5933C336.151 75.9551 339.096 80.8507 339.096 80.8507Z" fill="#FD9E83"/>
<path d="M423.282 110.179C418.126 118.958 410.54 152.312 405.803 151.678C401.065 151.045 381.313 130.485 384.321 122.882C388.368 112.621 402.066 104.888 402.066 104.888C402.066 104.888 428.449 101.394 423.282 110.179Z" fill="#FD9E83"/>
<path d="M316.761 240.234C316.761 240.234 326.682 258.963 317.541 297.28C311.888 320.944 310.277 340.475 313.584 350.815C316.891 361.154 312.589 386.429 316.41 396.803C320.232 407.176 312.679 429.025 345.45 426.951C378.221 424.876 379.934 438.285 397.057 419.178C397.057 419.178 415.713 399.109 411.942 361.573C408.171 324.036 404.401 286.511 405.514 266.34C406.628 246.17 405.514 240.246 404.91 233.281C404.305 226.316 402.224 204.874 402.224 204.874C402.224 204.874 391.574 221.376 366.48 232.388C341.386 243.4 316.761 240.234 316.761 240.234Z" fill="#FFB76C"/>
<path d="M574.338 417.764C574.338 417.764 605.6 408.855 602.943 413.168C553.948 492.753 573.801 537.814 573.801 537.814C689.402 443.927 679.899 429.591 687.706 411.303C689.458 407.204 736.294 418.364 749.364 422.609C762.434 426.855 814.511 436.442 817.02 459.727C819.53 483.013 750.608 701.036 746.922 750.071C743.236 799.106 488.666 744.017 488.666 744.017C488.666 744.017 491.594 613.825 479.575 563.117C474.222 540.505 479.915 515.066 482.967 505.908C486.02 496.75 520.543 423.208 574.338 417.764Z" fill="#FFB76C"/>
<path d="M743.265 535.818V535.886L742.451 537.961L743.265 535.818Z" fill="#6491E2"/>
<path d="M701.782 766.589C706.503 765.125 711.393 763.135 715.35 760.156C717.688 758.526 719.828 756.629 721.726 754.503C724.553 751.111 725.961 747.765 726.142 743.463C727.17 742.795 728.222 742.162 729.262 741.507C731.822 739.856 733.786 737.428 734.866 734.579C735.945 731.73 736.083 728.611 735.26 725.678C733.59 719.678 731.057 713.952 727.741 708.679C728.416 707.491 729.011 706.26 729.522 704.993C731.743 699.469 733.016 693.609 733.287 687.661C733.694 681.052 733.168 674.466 733.242 667.875C734.842 663.296 736.69 658.796 738.533 654.307C739.415 652.159 740.297 650.011 741.151 647.846C741.275 647.529 742.027 645.624 742.066 645.455C742.304 644.929 742.553 644.409 742.801 643.894C744.497 640.35 746.397 636.901 748.2 633.408C750.67 628.631 753.192 623.645 754.876 618.455C755.901 616.387 756.792 614.255 757.545 612.073C759.908 605.154 760.936 597.816 762.423 590.676C764.798 579.306 767.47 568 770.439 556.757C771.723 556.09 773.017 555.44 774.323 554.818C775.629 554.196 776.935 553.597 778.28 553.015L779.586 552.45L778.32 553.015C778.399 552.789 780.016 552.331 780.253 552.229C782.514 551.336 784.802 550.507 787.116 549.742C790.487 548.603 793.932 547.698 797.427 547.034C777.494 621.135 749.257 719.177 746.939 750.088C745.764 765.741 719.03 770.784 683.172 770.394C689.413 769.286 695.717 768.461 701.782 766.589Z" fill="#FC9956"/>
<path d="M623.962 226.141C623.962 226.141 582.417 234.197 581.693 246.888C580.97 259.579 584.096 275.956 580.913 280.988C577.73 286.019 570.585 289.659 567.708 309.751C564.83 329.842 562.529 379.284 578.2 384.242C601.728 391.675 640.231 384.083 652.708 378.43C665.184 372.777 701.562 347.445 716.384 310.672C731.207 273.899 724.915 252.128 724.915 252.128L623.962 226.141Z" fill="#FD9E83"/>
<path d="M571.014 336.863C570.404 343.019 573.185 354.687 584.616 354.789C596.046 354.891 607.952 341.962 602.903 341.787C582.111 341.086 571.246 334.54 571.014 336.863Z" fill="white"/>
<path d="M580.387 269.201C587.567 268.138 599.608 267.409 604.226 274.498C605.018 275.719 603.062 276.855 602.27 275.629C600.393 272.734 596.566 271.779 593.361 271.27C589.254 270.683 585.083 270.715 580.986 271.366C579.567 271.575 578.951 269.399 580.387 269.19V269.201Z" fill="#3A1013"/>
<path d="M652.657 287.817C648.666 284.606 644.222 281.802 639.361 280.123C636.11 278.992 632.011 277.963 628.789 279.738C627.517 280.445 626.375 278.489 627.659 277.782C631.203 275.826 635.533 276.516 639.219 277.692C644.765 279.45 649.757 282.593 654.262 286.217C655.393 287.127 653.787 288.715 652.668 287.817H652.657Z" fill="#3A1013"/>
<path d="M581.128 283.481C586.216 281.785 593.215 281.819 595.306 287.783C595.787 289.162 593.61 289.75 593.124 288.387C591.485 283.707 585.464 284.43 581.727 285.663C580.348 286.126 579.754 283.967 581.128 283.481Z" fill="#3A1013"/>
<path d="M640.514 302.181C636.641 298.348 628.908 292.571 623.407 296.686C622.277 297.562 621.146 295.601 622.277 294.736C628.67 289.925 637.54 296.042 642.125 300.581C643.159 301.604 641.559 303.204 640.525 302.181H640.514Z" fill="#3A1013"/>
<path d="M725.186 447.867C725.186 447.867 729.821 430.953 760.699 429.172C791.576 427.392 843.46 406.26 853.924 405.571C896.266 402.795 978.484 339.13 990.492 381.924C1002.5 424.718 1003.41 430.343 990.209 446.612C967.031 475.172 825.856 551.958 797.438 559.233C769.02 566.509 725.186 447.867 725.186 447.867Z" fill="#FFB76C"/>
<path d="M829.87 533.291C843.246 528.69 961.022 467.223 965.89 466.019C942.401 487.439 817.739 554.061 797.427 559.262C774.176 565.209 777.963 569.522 770.467 556.774C788.947 546.293 792.939 545.977 829.87 533.291Z" fill="#FC9956"/>
<path d="M902.744 225.457C902.744 225.457 906.018 247.08 922.915 252.886C939.812 258.692 986.93 264.102 988.728 261.32C990.526 258.539 986.591 249.212 974.923 240.93C963.255 232.648 907.013 214.524 904.876 220.013L902.744 225.457Z" fill="#3A1013"/>
<path d="M975.065 358.78C975.065 358.78 952.136 213.642 952.192 191.567C952.249 169.491 943.639 171.56 943.639 171.56C943.639 171.56 897.148 162.148 899.963 176.021C902.778 189.893 911.993 258.55 912.078 266.787C912.162 275.024 908.821 329.938 911.207 351.227C913.593 372.517 910.557 428.11 920.252 435.99C929.947 443.87 977.778 447.76 982.724 434.074C990.78 411.851 975.065 358.78 975.065 358.78Z" fill="#FD9E83"/>
<path d="M911.224 351.227C908.838 329.938 912.179 275.052 912.094 266.787C912.038 261.055 907.572 226.311 903.926 200.917C904.061 201.482 904.191 202.048 904.333 202.613C906.123 209.79 908.996 216.652 912.852 222.964C916.526 228.804 921.122 233.439 926.323 237.56C931.711 241.823 937.296 245.984 943.283 249.161C948.263 251.795 953.826 254.056 959.45 254.508C966.144 302.305 975.064 358.78 975.064 358.78C975.064 358.78 990.78 411.851 982.747 434.074C977.8 447.76 929.992 443.887 920.274 435.99C910.557 428.093 913.587 372.517 911.224 351.227Z" fill="#EF846F"/>
<path d="M988.672 260.812C988.672 260.812 978.751 279.54 987.897 317.857C993.55 341.521 995.162 361.052 991.854 371.392C988.547 381.732 992.849 407.007 989.028 417.38C985.206 427.753 992.759 449.603 959.988 447.528C927.217 445.453 925.504 458.834 908.381 439.755C908.381 439.755 889.725 419.681 893.496 382.15C897.267 344.619 901.049 307.06 899.918 286.895C898.787 266.73 899.918 260.795 900.523 253.836C901.128 246.877 903.208 225.429 903.208 225.429C903.208 225.429 913.859 241.925 938.953 252.943C964.047 263.96 988.672 260.812 988.672 260.812Z" fill="#FFB76C"/>
<path d="M985.065 267.85C954.934 273.802 923.621 262.101 903.27 239.449C903.027 239.177 903.423 238.776 903.666 239.047C923.881 261.547 954.979 273.215 984.912 267.313C985.268 267.239 985.421 267.788 985.065 267.878V267.85Z" fill="#3B0F12"/>
<path d="M688.096 256.736C688.096 256.736 707.842 222.749 722.874 231.981C737.906 241.212 759.563 254.169 753.633 304.765C747.702 355.36 774.21 409.347 781.435 426.719C781.435 426.719 772.152 428.127 757.952 430.111C743.751 432.095 733.208 458.67 725.429 451.887C717.651 445.103 715.254 426.448 720.805 413.966C726.356 401.484 706.616 441.83 704.524 448.387C702.432 454.945 657.931 448.387 657.931 448.387C657.931 448.387 648.021 440.015 658.819 422.163C674.647 395.955 709.341 347.598 684.868 318.937C656.868 286.143 688.096 256.736 688.096 256.736Z" fill="#3A1013"/>
<path d="M670.153 346.258C670.153 346.258 664.183 355.784 674.5 356.349C684.817 356.914 688.746 356.666 692.839 353.947C696.932 351.227 716.254 340.029 711.46 320.593C706.666 301.158 685.908 320.13 685.908 320.13L682.59 335.19L670.153 346.258Z" fill="#FD9E83"/>
<path d="M720.545 231.981C720.545 231.981 694.309 297.873 652.238 279.133C614.521 262.332 573.734 265.278 570.15 257.086C566.566 248.895 582.722 212.201 630.949 202.816C679.175 193.432 719.465 219.651 720.545 231.981Z" fill="#3A1013"/>
<path d="M584.43 326.552C581.716 322.634 578.211 317.184 579.715 312.147C580.625 309.134 583.333 307.371 586.103 306.251C588.556 305.256 591.547 305.041 593.412 303.063C598.992 297.15 603.023 289.201 605.425 281.502C605.855 280.117 608.037 280.711 607.607 282.107C605.39 289.196 601.946 295.841 597.432 301.74C595.238 304.601 593.633 306.166 590.286 307.207C587.573 308.055 584.226 308.903 582.524 311.401C579.568 315.732 583.949 321.944 586.352 325.41C587.183 326.608 585.221 327.739 584.401 326.54L584.43 326.552Z" fill="#3A1013"/>
<path d="M694.365 322.091C699.583 318.977 704.874 323.866 704.62 329.299C704.258 336.965 696.282 340.549 690.159 343.002C689.826 343.138 689.679 342.59 690.012 342.437C695.061 340.413 700.753 338.061 703.162 332.776C704.292 330.249 704.484 327.224 703.009 324.76C702.608 324.063 702.072 323.452 701.434 322.964C700.795 322.475 700.066 322.118 699.288 321.913C698.511 321.708 697.7 321.659 696.904 321.769C696.107 321.879 695.341 322.146 694.648 322.555C694.584 322.584 694.512 322.588 694.445 322.567C694.379 322.545 694.322 322.5 694.287 322.439C694.252 322.379 694.241 322.308 694.255 322.239C694.269 322.171 694.309 322.11 694.365 322.069V322.091Z" fill="#3B0F12"/>
<path d="M598.404 415.271C583.706 433.107 572.637 453.549 567.357 476.127C562.636 496.32 562.506 517.203 564.067 537.786C564.293 540.754 564.197 544.281 566.147 546.718C568.374 549.499 572.292 549.64 575.424 548.476C578.035 547.503 580.076 545.355 582.162 543.58C584.084 541.944 586.012 540.316 587.945 538.696C595.034 532.743 602.169 526.824 609.275 520.917C622.712 509.684 635.951 498.208 648.343 485.811C665.913 468.23 681.696 448.975 696.394 428.98C696.609 428.692 697.101 428.98 696.886 429.269C683.042 448.043 668.316 466.178 652.006 482.877C638.84 496.36 624.662 508.751 610.219 520.838C602.61 527.203 594.955 533.512 587.369 539.9C583.926 542.789 580.398 546.887 576.255 548.73C572.863 550.234 568.142 550.279 565.649 547.119C562.896 543.637 563.434 537.543 563.168 533.382C562.817 527.87 562.602 522.353 562.569 516.835C562.453 506.252 563.243 495.677 564.932 485.229C569.33 459.021 581.145 435.312 597.98 414.876C598.206 414.593 598.607 414.994 598.375 415.271H598.404Z" fill="#3B0F12"/>
<path d="M320.548 246.752C350.481 252.666 381.601 240.992 401.794 218.487C402.037 218.216 402.433 218.617 402.19 218.888C381.839 241.54 350.526 253.242 320.395 247.289C320.039 247.222 320.192 246.679 320.548 246.724V246.752Z" fill="#3B0F12"/>
<path d="M400.557 100.563C390.025 108.788 383.354 121.48 381.8 134.691C381.754 135.047 381.189 135.053 381.234 134.691C382.806 121.327 389.505 108.483 400.161 100.167C400.444 99.9469 400.845 100.343 400.557 100.563Z" fill="#3B0F12"/>
<path d="M395.774 90.0879C396.402 93.6493 397.351 98.7767 400.964 100.473C401.291 100.625 401.009 101.111 400.681 100.959C396.899 99.1894 395.882 93.9376 395.231 90.2179C395.169 89.8618 395.712 89.7091 395.797 90.0653L395.774 90.0879Z" fill="#3B0F12"/>
<path d="M641.571 300.559H650.769C650.919 300.559 651.062 300.618 651.168 300.724C651.274 300.83 651.334 300.974 651.334 301.124C651.334 301.274 651.274 301.418 651.168 301.524C651.062 301.63 650.919 301.689 650.769 301.689H641.571C641.421 301.689 641.277 301.63 641.171 301.524C641.065 301.418 641.006 301.274 641.006 301.124C641.006 300.974 641.065 300.83 641.171 300.724C641.277 300.618 641.421 300.559 641.571 300.559Z" fill="#3A1013"/>
<path d="M641.005 301.067C642.971 301.219 644.873 301.833 646.557 302.859C646.67 302.942 646.749 303.063 646.777 303.2C646.806 303.337 646.783 303.48 646.713 303.601C646.643 303.722 646.53 303.812 646.397 303.855C646.263 303.898 646.119 303.889 645.991 303.832C644.483 302.902 642.777 302.343 641.011 302.198C640.287 302.136 640.282 301.005 641.011 301.067H641.005Z" fill="#3A1013"/>
<path d="M641.435 301.299C642.506 303.202 643.57 305.111 644.629 307.026C644.697 307.155 644.712 307.305 644.671 307.445C644.631 307.585 644.538 307.704 644.411 307.777C644.285 307.85 644.136 307.872 643.994 307.837C643.852 307.802 643.73 307.714 643.651 307.591L640.44 301.87C640.084 301.231 641.062 300.66 641.413 301.305L641.435 301.299Z" fill="#3A1013"/>
<path d="M582.366 285.024L576.668 288.681C576.051 289.077 575.486 288.116 576.102 287.703L581.801 284.046C582.417 283.656 582.988 284.611 582.366 285.024Z" fill="#3A1013"/>
<path d="M582.524 284.481C581.218 285.182 579.766 285.569 578.284 285.612C578.134 285.612 577.991 285.552 577.885 285.446C577.779 285.34 577.719 285.196 577.719 285.047C577.719 284.897 577.779 284.753 577.885 284.647C577.991 284.541 578.134 284.481 578.284 284.481C579.565 284.453 580.821 284.126 581.953 283.526C582.592 283.187 583.169 284.165 582.519 284.504L582.524 284.481Z" fill="#3A1013"/>
<path d="M582.004 284.487L577.747 282.226C577.103 281.886 577.674 280.908 578.313 281.253L582.569 283.514C583.208 283.859 582.643 284.837 582.004 284.492V284.487Z" fill="#3A1013"/>
<path d="M965.578 135.499C965.234 133.289 954.77 99.8395 954.77 99.8395C952.882 86.7582 934.379 109.693 921.275 109.145C918.573 109.031 915.775 110.275 913.016 112.316C912.518 117.268 909.432 123.786 905.022 126.217C904.723 126.381 904.391 126.475 904.05 126.493C903.709 126.51 903.369 126.451 903.055 126.318C902.741 126.185 902.46 125.983 902.235 125.727C902.01 125.47 901.846 125.166 901.755 124.838C897.569 130.947 893.866 137.373 890.68 144.058C888.651 148.468 897.498 174.868 902.552 186.145C907.606 197.423 950.931 186.112 950.931 186.112C954.046 180.164 968.264 152.594 965.578 135.499Z" fill="#FD9E83"/>
<path d="M956.89 150.576C956.561 149.394 956.164 148.231 955.703 147.094C954.507 144.729 953.113 142.469 951.536 140.338C948.974 137.397 946.134 134.708 943.057 132.311C933.447 125.465 922.785 120.818 912.327 115.742C911.62 118.139 911.134 122.26 906.673 125.629C913.779 132.271 921.784 140.389 924.763 154.245C925.766 155.36 926.843 156.406 927.986 157.377C931.596 158.448 935.295 159.199 939.037 159.621C942.273 159.786 945.516 159.614 948.716 159.107C950.297 158.684 951.841 158.134 953.334 157.462C954.059 156.996 954.759 156.492 955.431 155.952C955.731 155.607 956.025 155.257 956.302 154.895C956.438 154.618 956.568 154.33 956.686 154.058C956.803 153.531 956.905 152.999 956.992 152.464C956.98 151.842 956.946 151.221 956.89 150.576Z" fill="#EF846F"/>
<path d="M918.652 45.1909C918.652 45.1909 917.9 53.0205 918.245 55.0951C918.59 57.1698 919.24 69.7932 926.838 69.03C934.436 68.2669 933.056 57.232 932.711 55.3721C932.367 53.5123 934.617 41.1094 934.136 38.4807C933.492 34.9644 929.393 28.9834 922.643 33.9582C918.827 36.7565 918.652 45.1909 918.652 45.1909Z" fill="#FD9E83"/>
<path d="M916.985 61.6923C916.985 61.6923 912.355 115.527 912.587 117.618C912.818 119.71 927.505 123.746 935.137 123.481C942.769 123.215 932.819 74.4627 932.616 72.6028C932.412 70.7429 932.768 53.9476 932.463 51.2963C932.056 47.7461 928.788 46.265 921.722 50.7705C917.725 53.2862 916.985 61.6923 916.985 61.6923Z" fill="#FD9E83"/>
<path d="M946.918 48.905C946.918 48.905 944.526 56.2541 944.346 58.3514C944.165 60.4487 941.847 72.8064 948.303 74.0557C954.759 75.3051 956.093 64.3154 956.217 62.4273C956.341 60.5391 961.011 49.1764 961.209 46.5138C961.469 42.9523 959.434 36.1064 952.729 39.1195C948.97 40.8154 946.918 48.905 946.918 48.905Z" fill="#FD9E83"/>
<path d="M941.813 64.3832C941.813 64.3832 925.86 115.097 925.56 117.172C925.261 119.247 938.359 130.581 944.753 132.334C951.146 134.086 953.707 80.8903 953.967 79.0078C954.227 77.1253 956.602 61.0592 956.952 58.4135C957.416 54.8804 955.053 52.5908 948.195 55.0726C944.323 56.4745 941.813 64.3832 941.813 64.3832Z" fill="#FD9E83"/>
<path d="M973.973 64.4228C973.973 64.4228 970.107 70.8674 969.49 72.8403C968.874 74.8132 964.024 86.1364 970.016 89.2004C976.008 92.2644 979.626 81.987 980.192 80.2063C980.757 78.4256 987.626 68.7361 988.377 66.2035C989.378 62.8117 988.847 55.6096 981.712 56.5933C977.67 57.1699 973.973 64.4228 973.973 64.4228Z" fill="#FD9E83"/>
<path d="M965.782 77.9619C965.782 77.9619 948.331 101.264 947.602 103.186C946.872 105.108 947.907 128.71 953.707 132.232C959.507 135.754 972.198 96.8716 972.843 95.1417C973.487 93.4119 980.814 78.9795 981.707 76.5204C982.905 73.2303 981.091 70.3359 973.923 70.7712C969.875 71.0143 965.782 77.9619 965.782 77.9619Z" fill="#FD9E83"/>
<path d="M985.596 87.7644C985.596 87.7644 981.588 92.7674 980.899 94.3333C980.209 95.8993 975.014 104.809 980.543 107.663C986.071 110.518 990.028 102.395 990.639 100.976C991.249 99.5568 998.282 92.106 999.141 90.0879C1000.27 87.4026 1000.15 81.5008 993.324 81.8739C989.48 82.1 985.596 87.7644 985.596 87.7644Z" fill="#FD9E83"/>
<path d="M880.805 128.766C881.8 130.915 886.277 144.465 894.304 141.35C899.177 139.456 923.882 151.865 921.174 145.76C911.405 123.713 894.728 118.127 894.191 117.494C893.654 116.861 893.287 113.322 891.365 103.361C889.392 93.2536 879.42 94.486 879.081 95.3057C876.311 101.959 879.81 126.618 880.805 128.766Z" fill="#FD9E83"/>
<path d="M977.099 98.2679C977.099 98.2679 956.092 125.137 955.318 126.663C954.544 128.19 961.915 153.832 965.403 148.682C970.971 140.457 982.215 114.04 982.928 112.666C983.64 111.293 991.351 100.02 992.329 98.0757C993.635 95.4696 992.069 92.9879 985.24 92.9201C981.322 92.8749 977.099 98.2679 977.099 98.2679Z" fill="#FD9E83"/>
<path d="M883.739 135.465C888.894 144.245 896.481 177.598 901.224 176.965C905.967 176.332 925.707 155.766 922.706 148.168C918.658 137.907 904.961 130.174 904.961 130.174C904.961 130.174 878.583 126.686 883.739 135.465Z" fill="#FD9E83"/>
<path d="M906.865 125.448C917.521 133.769 924.226 146.619 925.792 159.977C925.832 160.333 925.266 160.333 925.227 159.977C923.666 146.755 916.996 134.069 906.464 125.849C906.176 125.623 906.583 125.228 906.865 125.448Z" fill="#3B0F12"/>
<path d="M913.022 112.7C912.242 117.144 911.026 123.441 906.481 125.584C906.153 125.742 905.871 125.25 906.198 125.098C910.574 123.051 911.716 116.872 912.479 112.553C912.541 112.197 913.084 112.344 913.044 112.7H913.022Z" fill="#3B0F12"/>
<path d="M156.71 739.223L468.326 739.421C471.584 739.196 474.649 737.798 476.954 735.485C479.259 733.171 480.646 730.101 480.859 726.842L454.188 510.408C454.308 508.537 454.038 506.661 453.393 504.9C452.749 503.139 451.744 501.532 450.443 500.182C449.143 498.831 447.575 497.766 445.839 497.056C444.104 496.345 442.24 496.004 440.366 496.054L121.864 513.093C120.038 513.143 118.242 513.563 116.583 514.328C114.925 515.093 113.439 516.187 112.215 517.543C110.992 518.899 110.057 520.49 109.467 522.219C108.877 523.947 108.644 525.778 108.783 527.599L142.34 726.792C142.609 730.341 144.271 733.64 146.963 735.969C149.655 738.298 153.159 739.467 156.71 739.223V739.223Z" fill="#3B0F12"/>
<path d="M157.428 740.381L589.806 739.279C590.427 739.277 591.042 739.149 591.614 738.903C592.185 738.657 592.701 738.299 593.13 737.849C593.56 737.4 593.895 736.868 594.114 736.286C594.333 735.704 594.433 735.084 594.407 734.463L593.667 717.057C593.617 715.843 593.09 714.697 592.201 713.869C591.312 713.04 590.133 712.595 588.918 712.63L155.489 723.643C154.803 723.663 154.13 723.835 153.519 724.148C152.908 724.46 152.375 724.905 151.957 725.45C151.54 725.995 151.249 726.625 151.106 727.296C150.963 727.968 150.971 728.662 151.13 729.33L152.922 736.837C153.163 737.85 153.739 738.752 154.557 739.395C155.375 740.039 156.387 740.387 157.428 740.381V740.381Z" fill="#3B0F12"/>
<path d="M31.0978 737.866H914.424V771.208H31.0978V737.866Z" fill="#421F22"/>
<path d="M251.707 623.951C248.855 602.969 258.8 584.295 273.919 582.24C289.037 580.185 303.605 595.528 306.457 616.509C309.309 637.491 299.364 656.165 284.246 658.22C269.127 660.275 254.559 644.932 251.707 623.951Z" fill="white"/>
<path d="M723.987 169.344C719.719 149.225 715.242 126.573 726.022 107.624C734.316 93.0614 754.412 82.8802 769.602 93.7963C776.635 98.8446 780.965 107.364 779.444 116.036C779.415 116.143 779.355 116.24 779.271 116.313C779.187 116.387 779.083 116.434 778.972 116.448C778.862 116.463 778.749 116.444 778.649 116.395C778.549 116.346 778.466 116.268 778.41 116.171C760.478 80.455 758.324 37.6949 772.649 0.384441C772.904 -0.288278 774 2.91657e-05 773.735 0.684055C759.523 37.7119 761.58 80.1441 779.388 115.6L778.353 115.73C779.784 107.579 775.611 99.5116 769.031 94.7743C762.214 89.8561 753.502 89.3417 745.712 92.0891C727.99 98.3075 720.658 117.488 720.432 134.934C720.279 146.466 722.693 157.818 725.078 169.045C725.225 169.751 724.14 170.057 723.987 169.344V169.344Z" fill="#3B0F12"/>
<path d="M894.366 388.679C893.583 404.525 899.066 420.043 909.63 431.88C910.11 432.446 909.313 433.226 908.827 432.683C898.056 420.63 892.457 404.825 893.236 388.679C893.27 387.956 894.4 387.956 894.366 388.679V388.679Z" fill="#3B0F12"/>
<path d="M412.4 360.985C415.522 382.987 411.352 405.406 400.528 424.814C400.45 424.937 400.327 425.025 400.186 425.06C400.044 425.094 399.895 425.073 399.768 425C399.642 424.927 399.549 424.808 399.508 424.668C399.468 424.528 399.483 424.378 399.55 424.249C410.231 405.106 414.354 382.995 411.292 361.29C411.19 360.578 412.281 360.272 412.383 360.99L412.4 360.985Z" fill="#3B0F12"/>
<path d="M599.404 163.103C599.02 162.547 598.679 161.961 598.387 161.351C597.759 160.186 596.866 158.44 595.769 156.173C592.7 149.753 589.994 143.166 587.663 136.443C586.187 132.175 584.695 127.478 583.366 122.311C582.756 119.721 582.27 116.878 582.846 113.955C583.154 112.456 583.771 111.037 584.659 109.79C585.547 108.543 586.685 107.495 588.002 106.714C588.675 106.3 589.392 105.963 590.139 105.707C590.895 105.44 591.681 105.266 592.479 105.187C594.108 105.02 595.752 105.233 597.284 105.809C598.847 106.388 600.267 107.298 601.445 108.477C601.743 108.775 602.02 109.093 602.276 109.427C602.412 109.59 602.538 109.759 602.655 109.936L602.83 110.202L602.921 110.332L603.034 110.513L603.599 111.519L603.672 111.649C603.672 111.649 603.672 111.683 603.672 111.688L603.605 111.722L603.328 111.835L602.762 112.073L602.321 112.265C602.224 112.309 602.124 112.347 602.022 112.378L601.417 112.582C599.77 113.08 598.043 113.26 596.329 113.113C594.609 112.979 592.92 112.583 591.32 111.937C589.705 111.297 588.184 110.441 586.798 109.393C585.405 108.337 584.121 107.144 582.965 105.832C580.732 103.221 578.763 100.396 577.086 97.3973C575.39 94.486 573.796 91.6029 572.32 88.7085C569.347 82.931 566.769 77.2157 564.542 71.6757C562.314 66.1357 560.528 60.7426 558.985 55.6661C558.261 53.1109 557.526 50.6575 556.95 48.2605C556.65 47.0677 556.333 45.9032 556.073 44.75C555.813 43.5967 555.565 42.4887 555.321 41.3581C553.796 34.3995 552.699 27.3538 552.037 20.2607C551.766 17.7564 551.692 15.8004 551.613 14.4719C551.547 13.7994 551.532 13.1229 551.568 12.4481C551.72 13.1078 551.816 13.7791 551.856 14.455C552.014 15.7721 552.173 17.7168 552.512 20.2098C553.356 27.2574 554.577 34.2546 556.169 41.1716C556.429 42.2626 556.689 43.3819 556.961 44.5238C557.232 45.6658 557.56 46.8247 557.865 48.0118C558.465 50.3918 559.222 52.8283 559.963 55.3608C561.54 60.3978 563.354 65.7286 565.616 71.2404C567.877 76.7522 570.443 82.411 573.417 88.1432C574.887 91.015 576.509 93.8755 578.16 96.7699C579.801 99.6943 581.725 102.451 583.903 105.001C586.046 107.528 588.759 109.51 591.818 110.784C593.301 111.388 594.868 111.759 596.465 111.886C598.022 112.025 599.591 111.866 601.089 111.417L601.654 111.236C601.747 111.208 601.837 111.174 601.926 111.134L602.039 111.084C602.039 111.084 602.039 111.084 602.039 111.033L601.756 110.603C601.654 110.445 601.536 110.298 601.422 110.151C601.191 109.855 600.944 109.572 600.682 109.303C599.629 108.244 598.36 107.425 596.962 106.9C595.598 106.384 594.134 106.191 592.683 106.335C591.971 106.402 591.271 106.556 590.597 106.793C589.924 107.016 589.279 107.316 588.675 107.686C587.486 108.383 586.455 109.32 585.648 110.437C584.841 111.555 584.276 112.828 583.988 114.176C583.423 116.827 583.864 119.541 584.44 122.09C585.712 127.178 587.16 131.915 588.573 136.172C591.4 144.703 594.254 151.435 596.289 156.003C597.335 158.264 598.144 160.073 598.692 161.277C598.978 161.866 599.216 162.477 599.404 163.103V163.103Z" fill="#3B0F12"/>
<path d="M1012.71 203.772C1012.62 203.772 1012.55 202.359 1012.5 199.815C1012.5 199.17 1012.5 198.458 1012.46 197.672C1012.42 196.886 1012.52 196.044 1012.56 195.134C1012.65 193.314 1012.68 191.228 1012.96 188.944C1013.09 187.813 1013.21 186.617 1013.34 185.354C1013.48 184.11 1013.73 182.827 1013.91 181.487C1014.01 180.82 1014.12 180.142 1014.23 179.452C1014.29 179.107 1014.34 178.757 1014.41 178.406L1014.63 177.361L1015.57 173.013C1018.63 160.138 1023.77 147.852 1030.81 136.647L1033.25 132.933C1033.45 132.628 1033.65 132.334 1033.82 132.034C1033.99 131.734 1034.24 131.469 1034.44 131.18L1035.66 129.518C1036.47 128.433 1037.21 127.359 1038.01 126.387L1040.3 123.6C1041.73 121.796 1043.2 120.315 1044.43 118.97C1045.06 118.308 1045.62 117.675 1046.17 117.121L1047.72 115.646C1049.59 113.882 1050.65 112.938 1050.71 113C1050.77 113.062 1049.82 114.131 1048.06 115.985L1046.6 117.522C1046.07 118.088 1045.54 118.749 1044.94 119.433C1043.76 120.818 1042.35 122.328 1040.98 124.154L1038.76 126.98C1037.99 127.964 1037.28 129.043 1036.5 130.129C1036.12 130.694 1035.72 131.231 1035.32 131.797C1035.12 132.079 1034.91 132.362 1034.72 132.656C1034.52 132.95 1034.34 133.221 1034.15 133.549L1031.78 137.263C1028.39 142.857 1025.4 148.683 1022.83 154.697C1020.35 160.746 1018.29 166.963 1016.68 173.302C1016.34 174.771 1016.01 176.202 1015.69 177.592L1015.46 178.633C1015.38 178.977 1015.33 179.322 1015.27 179.661C1015.14 180.345 1015.03 181.018 1014.91 181.674C1014.69 182.997 1014.42 184.269 1014.26 185.501C1014.09 186.733 1013.95 187.926 1013.81 189.057C1013.47 191.318 1013.38 193.381 1013.25 195.19C1013.18 196.095 1013.09 196.937 1013.05 197.712C1013 198.486 1013 199.199 1012.98 199.837C1012.88 202.353 1012.79 203.772 1012.71 203.772Z" fill="#3B0F12"/>
<path d="M821.408 263.938C821.323 263.938 821.029 262.575 820.565 260.077C820.452 259.449 820.328 258.754 820.187 257.996C820.045 257.239 819.966 256.397 819.842 255.503C819.61 253.711 819.276 251.676 819.124 249.404C819.028 248.273 818.92 247.086 818.813 245.848C818.705 244.61 818.683 243.315 818.609 241.981C818.44 239.307 818.457 236.447 818.434 233.434C818.525 226.899 818.984 220.374 819.808 213.891C820.706 207.417 821.973 201 823.601 194.67C824.404 191.765 825.133 189.017 825.998 186.462C826.411 185.19 826.778 183.952 827.202 182.788C827.626 181.623 828.039 180.526 828.434 179.43C829.186 177.281 830.023 175.405 830.696 173.731C831.046 172.9 831.363 172.12 831.679 171.414C831.996 170.707 832.318 170.079 832.59 169.503C833.686 167.242 834.331 165.964 834.41 165.998C834.489 166.032 833.991 167.349 833.025 169.695C832.787 170.26 832.516 170.933 832.222 171.645C831.928 172.358 831.657 173.149 831.334 173.991C830.707 175.687 829.927 177.57 829.232 179.729C828.855 180.796 828.478 181.915 828.101 183.087C827.705 184.257 827.366 185.495 826.97 186.767C826.156 189.3 825.467 192.059 824.709 194.947C821.561 207.54 819.854 220.45 819.621 233.428C819.621 236.419 819.553 239.262 819.678 241.908C819.729 243.236 819.734 244.525 819.813 245.757C819.893 246.99 819.972 248.171 820.045 249.296C820.153 251.558 820.413 253.593 820.577 255.385C820.667 256.278 820.735 257.115 820.82 257.878C820.905 258.641 821.012 259.342 821.091 259.969C821.34 262.508 821.492 263.921 821.408 263.938Z" fill="#3B0F12"/>
<path d="M489.938 246.051C489.853 246.051 489.633 245.017 489.305 243.129C489.146 242.185 488.949 241.026 488.694 239.686C488.44 238.346 488.197 236.82 487.852 235.163C487.507 233.507 487.173 231.636 486.721 229.669C486.269 227.701 485.817 225.604 485.302 223.399C484.234 219.001 482.951 214.19 481.436 209.187C479.92 204.184 478.275 199.492 476.71 195.247C475.895 193.133 475.149 191.115 474.38 189.249C473.612 187.383 472.905 185.648 472.238 184.076C471.571 182.505 470.938 181.08 470.395 179.831C469.852 178.582 469.372 177.513 468.976 176.637C468.196 174.884 467.794 173.895 467.845 173.856C467.896 173.816 468.462 174.737 469.377 176.428C469.841 177.27 470.389 178.31 470.989 179.537C471.588 180.764 472.3 182.149 473.007 183.72C473.713 185.292 474.51 186.993 475.268 188.859C476.025 190.724 476.873 192.726 477.716 194.84C479.35 199.085 481.017 203.811 482.566 208.831C484.115 213.851 485.342 218.707 486.359 223.139C486.84 225.367 487.309 227.475 487.671 229.471C488.033 231.466 488.372 233.315 488.643 235.011C488.915 236.707 489.124 238.25 489.31 239.607C489.497 240.964 489.621 242.128 489.712 243.083C489.96 244.983 490.023 246.04 489.938 246.051Z" fill="#3B0F12"/>
<path d="M286.765 282.808C286.426 282.808 285.951 239.511 285.702 186.1C285.453 132.69 285.527 89.3869 285.866 89.3812C286.205 89.3756 286.686 132.678 286.935 186.095C287.183 239.511 287.121 282.808 286.765 282.808Z" fill="#3B0F12"/>
<path d="M262.581 424.186C262.502 424.22 261.84 422.954 260.715 420.631C260.15 419.5 259.477 418.047 258.658 416.413C257.838 414.78 256.962 412.886 255.882 410.845C255.354 409.816 254.808 408.742 254.243 407.623C253.677 406.492 253.044 405.362 252.417 404.152C251.167 401.744 249.754 399.217 248.296 396.548C245.311 391.234 241.93 385.457 238.205 379.499C234.479 373.54 230.72 367.995 227.226 363.003C225.457 360.521 223.795 358.152 222.173 355.987C221.364 354.896 220.601 353.834 219.838 352.833L217.65 349.955C216.271 348.107 214.965 346.484 213.84 345.037C212.715 343.59 211.737 342.352 210.934 341.346C209.334 339.322 208.475 338.18 208.543 338.124C208.611 338.067 209.583 339.107 211.302 341.041C212.167 342.002 213.207 343.189 214.377 344.602C215.547 346.015 216.909 347.604 218.334 349.418L220.595 352.245C221.375 353.234 222.161 354.286 222.987 355.36C224.683 357.508 226.378 359.882 228.154 362.33C231.704 367.305 235.503 372.862 239.245 378.832C242.987 384.801 246.351 390.63 249.285 395.989C250.726 398.685 252.111 401.235 253.321 403.671C253.932 404.881 254.537 406.046 255.091 407.182C255.645 408.318 256.159 409.409 256.662 410.449C257.68 412.524 258.522 414.407 259.28 416.103C260.037 417.798 260.665 419.223 261.156 420.416C262.146 422.801 262.66 424.136 262.581 424.186Z" fill="#3B0F12"/>
<path d="M939.444 526.643C939.377 526.598 940.049 525.456 941.327 523.421C941.649 522.912 942.011 522.353 942.401 521.725C942.791 521.098 943.277 520.481 943.769 519.78C944.77 518.401 945.861 516.784 947.229 515.122L949.326 512.477C950.061 511.561 950.886 510.662 951.712 509.707C953.34 507.768 955.239 505.84 957.206 503.782C965.909 495.002 975.805 487.49 986.603 481.469C989.113 480.129 991.481 478.818 993.788 477.772C994.918 477.207 996.021 476.681 997.1 476.218L1000.22 474.912C1002.18 474.041 1004.03 473.431 1005.63 472.837C1006.43 472.554 1007.18 472.272 1007.89 472.046L1009.8 471.48C1012.11 470.791 1013.39 470.451 1013.42 470.53C1013.44 470.61 1012.21 471.096 1009.96 471.932L1008.08 472.611C1007.41 472.871 1006.68 473.176 1005.89 473.493C1004.32 474.143 1002.5 474.81 1000.57 475.72L997.513 477.094C996.45 477.574 995.382 478.151 994.251 478.699C991.99 479.779 989.655 481.113 987.179 482.47C976.533 488.545 966.727 495.985 958.009 504.602C956.036 506.614 954.125 508.497 952.475 510.396C951.638 511.335 950.779 512.211 950.05 513.104L947.907 515.676C946.505 517.293 945.374 518.865 944.323 520.199C943.809 520.877 943.317 521.493 942.881 522.076L941.723 523.698C940.326 525.631 939.49 526.688 939.444 526.643Z" fill="#3B0F12"/>
<path d="M83.4341 389.041C83.4341 389.041 97.567 362.098 134.663 366.039L138.558 386.559C108.172 384.434 98.675 409.986 98.675 409.986C100.948 398.442 83.4341 389.041 83.4341 389.041Z" fill="#F9683D"/>
<path d="M791.435 70.8673C791.435 70.8673 805.211 40.137 807.263 11.261L819.87 9.66681C832.64 38.3676 813.086 70.5734 813.086 70.5734C810.531 58.8884 791.435 70.8673 791.435 70.8673Z" fill="#FFB76C"/>
<path d="M1091.13 292.639C1091.13 292.639 1056.36 312.555 1036.16 340.549L1020.7 331.413C1023.72 290.892 1066.04 274.379 1066.04 274.379C1061.81 288.665 1091.13 292.639 1091.13 292.639Z" fill="#F9683D"/>
<path d="M532.093 73.3604C532.093 73.3604 533.275 116.279 548.922 149.807L533.031 159.519C497.53 135.561 503.194 87.3235 503.194 87.3235C514.144 98.7202 532.093 73.3604 532.093 73.3604Z" fill="#FFB76C"/>
<path d="M956.896 585.583C956.896 585.583 979.508 584.243 996.931 575.407L1002.32 583.632C990.277 602.757 964.742 600.592 964.742 600.592C970.582 594.622 956.896 585.583 956.896 585.583Z" fill="#6EA6FF"/>
<path d="M646.992 117.5C646.992 117.5 669.605 116.16 687.028 107.324L692.415 115.549C680.38 134.674 654.845 132.509 654.845 132.509C660.673 126.539 646.992 117.5 646.992 117.5Z" fill="#F9683D"/>
<path d="M90.9583 253.366C90.9583 253.366 94.5707 231.003 89.7599 212.099L98.9576 208.628C115.007 224.541 107.318 248.991 107.318 248.991C102.745 241.987 90.9583 253.366 90.9583 253.366Z" fill="#FFB76C"/>
<path d="M184.636 158.151C184.636 158.151 196.389 220.816 222.902 268.726L206.508 284.023C158.92 251.36 153.934 180.487 153.934 180.487C169.616 196.445 184.636 158.151 184.636 158.151Z" fill="#6EA6FF"/>
</g>
<defs>
<clipPath id="clip0_111_3967">
<rect width="1091.13" height="771.208" fill="white" transform="matrix(-1 0 0 1 1091.13 0)"/>
</clipPath>
</defs>
</svg>
