<svg width="1920" height="1080" viewBox="0 0 1920 1080" fill="none" xmlns="http://www.w3.org/2000/svg">
<mask id="mask0_115_1574" style="mask-type:alpha" maskUnits="userSpaceOnUse" x="0" y="0" width="1920" height="1080">
<rect width="1920" height="1080" fill="white"/>
</mask>
<g mask="url(#mask0_115_1574)">
<path d="M436.828 118.2C456.163 169.305 484.799 223.857 536.619 241.185C579.503 255.526 628.186 239.125 662.235 209.37C693.118 182.384 713.868 146.012 737.254 112.32C760.64 78.628 788.987 45.735 827.5 31.629C870.762 15.781 918.511 26.321 964.346 31.002C1010.18 35.683 1062.84 31.438 1092.15 -4.114C1111.14 -27.153 1112.94 -67.344 1087.48 -82.95C1072.18 -92.327 1052.76 -90.027 1034.99 -87.5C916.421 -70.6333 797.365 -57.8213 677.829 -49.064C618.106 -44.688 558.321 -41.3303 498.473 -38.991C468.553 -37.8217 438.626 -36.9077 408.692 -36.249C390.267 -35.843 353.907 -44.849 358.022 -23.482C361.343 -6.245 394.043 19.661 403.259 36.96C417.053 62.851 426.476 90.839 436.828 118.2Z" fill="#FFEEDE"/>
<path d="M91.5168 994.82C117.952 962.781 149.043 933.057 164.237 894.398C183.764 844.717 173.813 788.77 161.237 736.892C148.661 685.014 133.6 631.464 143.769 579.06C153.523 528.785 186.159 481.455 178.388 430.836C172.452 392.163 144.082 361.317 117.031 333.049L-30.4532 178.934C-49.4222 216.688 -62.3192 257.206 -72.9212 298.105C-139.068 553.291 -115.633 830.772 -7.62122 1071.25C3.34378 1095.66 30.5368 1130.99 45.3848 1093.34C59.8328 1056.68 64.9238 1027.05 91.5168 994.82Z" fill="#FFEEDE"/>
<circle cx="1969.32" cy="334.584" r="119.762" fill="#FFEEDE"/>
<circle cx="812.52" cy="125.55" r="22.649" fill="#FFEEDE"/>
<circle cx="246.555" cy="800.913" r="17.001" fill="#FFEEDE"/>
</g>
</svg>
