<svg width="210" height="210" viewBox="0 0 210 210" fill="none" xmlns="http://www.w3.org/2000/svg">
<circle cx="105" cy="105" r="105" fill="#CDE2EF"/>
<g clip-path="url(#clip0)">
<path d="M126.213 118.637L113.334 105.758C112.915 105.339 112.915 104.661 113.334 104.242L126.213 91.3628C128.305 89.2709 128.305 85.8786 126.213 83.7867C124.121 81.6947 120.729 81.6947 118.637 83.7867L105.758 96.6661C105.339 97.0845 104.661 97.0845 104.242 96.6661L91.3629 83.7867C89.271 81.6947 85.8787 81.6947 83.7868 83.7867C81.6948 85.8786 81.6948 89.2709 83.7868 91.3628L96.6662 104.242C97.0846 104.661 97.0846 105.339 96.6662 105.758L83.7868 118.637C81.6948 120.729 81.6948 124.121 83.7868 126.213C85.8787 128.305 89.271 128.305 91.3629 126.213L104.242 113.334C104.661 112.915 105.339 112.915 105.758 113.334L118.637 126.213C120.729 128.305 124.121 128.305 126.213 126.213C128.305 124.121 128.305 120.729 126.213 118.637Z" fill="#E1473D"/>
</g>
<defs>
<clipPath id="clip0">
<rect width="60" height="60" fill="white" transform="translate(105 62.5735) rotate(45)"/>
</clipPath>
</defs>
</svg>
