<svg width="21" height="22" viewBox="0 0 21 22" fill="none" xmlns="http://www.w3.org/2000/svg">
<path d="M3.64107 11.3789L16.6827 11.1749C18.6034 11.1449 20.1361 9.56342 20.106 7.64274C20.091 6.68236 19.3004 5.91604 18.34 5.93106L14.8622 5.98546L14.8282 3.81186C14.802 2.13392 13.4155 0.790166 11.7376 0.816411L8.25981 0.870808C6.58187 0.897053 5.23812 2.28351 5.26436 3.96145L5.29836 6.13505L1.8206 6.18944C0.860214 6.20447 0.0938938 6.99514 0.108915 7.95552C0.138957 9.8762 1.72039 11.4089 3.64107 11.3789ZM7.87268 3.92065C7.86893 3.68094 8.0609 3.48288 8.3006 3.47913L11.7784 3.42473C12.0181 3.42098 12.2161 3.61295 12.2199 3.85265L12.2539 6.02625L7.90668 6.09425L7.87268 3.92065Z" fill="#38C976"/>
<path d="M2.0645 21.8397L18.5839 21.5813C19.5443 21.5663 20.3106 20.7756 20.2955 19.8152L20.1696 11.7639C19.1938 12.469 18.0014 12.8939 16.709 12.9141L14.9701 12.9413L14.9905 14.2455C15.0018 14.9657 14.427 15.5588 13.7068 15.57C12.9865 15.5813 12.3935 15.0065 12.3822 14.2863L12.3618 12.9821L8.01459 13.0501L8.03499 14.3543C8.04625 15.0745 7.47147 15.6676 6.75123 15.6788C6.03098 15.6901 5.43793 15.1153 5.42667 14.3951L5.40627 13.0909L3.66739 13.1181C2.37496 13.1383 1.16991 12.7509 0.172485 12.0767L0.298419 20.128C0.313441 21.0884 1.10411 21.8547 2.0645 21.8397Z" fill="#38C976"/>
</svg>
