<?xml version="1.0" encoding="UTF-8"?>
<svg width="39px" height="40px" viewBox="0 0 39 40" version="1.1" xmlns="http://www.w3.org/2000/svg" xmlns:xlink="http://www.w3.org/1999/xlink">
    <!-- Generator: Sketch 62 (91390) - https://sketch.com -->
    <title>google_login</title>
    <desc>Created with Sketch.</desc>
    <g id="Page-1" stroke="none" stroke-width="1" fill="none" fill-rule="evenodd">
        <g id="google_login">
            <path d="M19.7237333,7.83101494 C22.6501333,7.83101494 25.2706667,8.83668212 27.3373333,10.7985574 L33,5.15198351 C29.5610667,1.96187532 25.0722667,0 19.7237333,0 C11.9696,0 5.26533333,4.43482741 2,10.8974755 L8.5968,16 C10.1592,11.3096342 14.5488,7.83101494 19.7237333,7.83101494 Z" id="Path" fill="#EA4335" fill-rule="nonzero"></path>
            <path d="M39,19.8941441 C39,18.5504505 38.8759791,17.2495495 38.6858138,16 L20,16 L20,23.7198198 L30.6988686,23.7198198 C30.2193211,26.2531532 28.8302872,28.4099099 26.7467363,29.8648649 L33.137946,35 C36.8668407,31.4225225 39,26.1333333 39,19.8941441 L39,19.8941441 Z" id="Path" fill="#4285F4" fill-rule="nonzero"></path>
            <path d="M9,23.8320965 C8.58974359,22.6215213 8.35042735,21.3358071 8.35042735,20 C8.35042735,18.6641929 8.58119658,17.3784787 9,16.1679035 L2.17948718,11 C0.786324786,13.7050093 0,16.7606679 0,20 C0,23.2393321 0.786324786,26.2949907 2.18803419,29 L9,23.8320965 Z" id="Path" fill="#FBBC05" fill-rule="nonzero"></path>
            <path d="M19.8079807,40 C25.1877343,40 29.7123728,38.2451081 33,35.2131823 L26.5824853,30.2698249 C24.7975362,31.4644696 22.4978575,32.1647786 19.8079807,32.1647786 C14.6108731,32.1647786 10.2024638,28.6879506 8.62506695,24 L2,29.099897 C5.28762721,35.5674562 12.0206213,40 19.8079807,40 Z" id="Path" fill="#34A853" fill-rule="nonzero"></path>
            <polygon id="Path" points="0 0 40 0 40 40 0 40"></polygon>
        </g>
    </g>
</svg>