<?xml version="1.0" encoding="UTF-8"?>
<svg width="15px" height="13px" viewBox="0 0 15 13" version="1.1" xmlns="http://www.w3.org/2000/svg" xmlns:xlink="http://www.w3.org/1999/xlink">
    <!-- Generator: Sketch 62 (91390) - https://sketch.com -->
    <title>Fill 25</title>
    <desc>Created with Sketch.</desc>
    <g id="Page-1" stroke="none" stroke-width="1" fill="none" fill-rule="evenodd">
        <g id="Test-Report" transform="translate(-33.000000, -381.000000)" fill="#FBA138">
            <g id="Group-29" transform="translate(33.000000, 381.000000)">
                <path d="M14.3437367,0.0995494234 C13.6682074,-0.257812676 12.9132956,0.430949319 12.4696877,0.840235825 C11.4548373,1.81152768 10.5956387,2.9340112 9.63370996,3.95570028 C8.56593788,5.07971098 7.57599175,6.20372169 6.48331536,7.30177019 C5.85759469,7.91569995 5.1805089,8.58002692 4.7649183,9.34667553 C3.82789382,8.45174309 3.02006043,7.48045124 1.97874917,6.68936761 C1.22383742,6.12736226 -0.0260473961,5.71960294 0.000413428076,7.07269192 C0.0517785574,8.8350674 1.63942801,10.7257267 2.81148687,11.9260968 C3.30645993,12.437705 3.95708491,12.9737481 4.71199666,12.9981831 C5.62256031,13.0501075 6.56114131,11.9764941 7.10747951,11.3900537 C8.07096481,10.3683646 8.85233738,9.2183917 9.73799674,8.17074042 C10.8820383,6.79168924 12.0540971,5.43860027 13.1732343,4.03358689 C13.8767809,3.16461666 16.0901511,1.01891687 14.3437367,0.0995494234" id="Fill-25"></path>
            </g>
        </g>
    </g>
</svg>