<svg width="14" height="15" viewBox="0 0 14 15" fill="none" xmlns="http://www.w3.org/2000/svg">
<path d="M3.04264 15C3.04264 14.8312 3.01055 14.7468 2.94636 14.7468L2.50344 14.961C2.50344 14.8701 2.45209 14.8052 2.34938 14.7662L2.19532 14.7468C2.09262 14.7468 1.96424 14.7922 1.81018 14.8831C1.7845 14.8182 1.75241 14.7532 1.71389 14.6883C1.67538 14.6234 1.64328 14.5649 1.61761 14.513C1.45071 14.1883 1.28381 13.8312 1.11692 13.4416C0.962861 13.039 0.815222 12.6558 0.674003 12.2922C0.545621 11.9286 0.442916 11.6429 0.365887 11.4351C0.314535 11.2662 0.256763 11.013 0.192572 10.6753C0.128381 10.3377 0.0641907 9.90909 0 9.38961C0.14122 9.48052 0.250344 9.52597 0.327373 9.52597C0.41724 9.52597 0.500688 9.38961 0.577717 9.11688C0.616231 9.16883 0.686841 9.1948 0.789546 9.1948C0.866575 9.1948 0.924347 9.16883 0.962861 9.11688L1.27098 8.64935L1.61761 8.76623H1.63686C1.66254 8.76623 1.68822 8.75325 1.71389 8.72727C1.73957 8.7013 1.77808 8.67532 1.82944 8.64935C1.93214 8.58442 2.00917 8.55195 2.06052 8.55195L2.11829 8.57143C2.43925 8.72727 2.64466 9.01299 2.73453 9.42857C2.96561 10.4156 3.1967 10.9091 3.42779 10.9091C3.65887 10.9091 3.92847 10.6623 4.23659 10.1688C4.39065 9.92208 4.5447 9.63636 4.69876 9.31169C4.86566 8.98701 5.03255 8.62338 5.19945 8.22078C5.22513 8.37662 5.2508 8.45454 5.27648 8.45454C5.34067 8.45454 5.44979 8.29221 5.60385 7.96753C5.77075 7.64286 6.03393 7.1948 6.3934 6.62338C6.59881 6.27273 6.85557 5.87662 7.16369 5.43506C7.48464 4.99351 7.82485 4.53896 8.18432 4.07143C8.54379 3.60389 8.89042 3.16234 9.22421 2.74675C9.57084 2.33117 9.87896 1.97403 10.1486 1.67532C10.4182 1.37662 10.6171 1.18182 10.7455 1.09091C11.2334 0.753246 11.6185 0.428571 11.901 0.116882C11.8881 0.207791 11.8689 0.292207 11.8432 0.370129C11.8304 0.435064 11.8239 0.480519 11.8239 0.506492C11.8239 0.558441 11.8496 0.584415 11.901 0.584415L12.4402 0.311687V0.38961C12.4402 0.493506 12.4658 0.545454 12.5172 0.545454C12.5557 0.545454 12.6327 0.487013 12.7483 0.370129C12.8638 0.253246 12.928 0.168831 12.9409 0.116882L12.9023 0.38961L13.5571 0L13.403 0.350649C13.6084 0.207791 13.7561 0.136363 13.8459 0.136363C13.8973 0.136363 13.9358 0.16883 13.9615 0.233765C13.9872 0.285713 14 0.337662 14 0.38961C14 0.467532 13.9679 0.558441 13.9037 0.662337C13.8395 0.766233 13.7561 0.88961 13.6534 1.03247C13.5763 1.13636 13.448 1.29221 13.2682 1.5C13.1013 1.6948 12.8446 1.98701 12.4979 2.37662C12.1513 2.75325 11.6891 3.27922 11.1114 3.95455C10.9574 4.12338 10.7199 4.42208 10.3989 4.85065C10.0779 5.26623 9.71206 5.75325 9.30124 6.31169C8.90326 6.85714 8.50527 7.40909 8.10729 7.96753C7.70931 8.52597 7.35626 9.03247 7.04814 9.48701C6.74003 9.92857 6.52178 10.2597 6.3934 10.4805L5.19945 12.526C4.94269 12.9675 4.73086 13.3312 4.56396 13.6169C4.39707 13.8896 4.26868 14.0779 4.17882 14.1818C3.98625 14.4156 3.77442 14.6234 3.54333 14.8052L3.37001 14.7078L3.21596 14.8052L3.04264 15Z" fill="#18244F"/>
</svg>
