<?xml version="1.0" encoding="UTF-8"?>
<svg width="705px" height="510px" viewBox="0 0 705 510" version="1.1" xmlns="http://www.w3.org/2000/svg" xmlns:xlink="http://www.w3.org/1999/xlink">
    <!-- Generator: Sketch 62 (91390) - https://sketch.com -->
    <title>Artboard</title>
    <desc>Created with Sketch.</desc>
    <g id="Artboard" stroke="none" stroke-width="1" fill="none" fill-rule="evenodd">
        <circle id="Oval" fill="#EAF3FA" cx="352.5" cy="490.5" r="352.5"></circle>
        <g id="login_banner" transform="translate(45.000000, 53.000000)" fill-rule="nonzero">
            <path d="M617,422.966839 C617,432.365064 613.24761,440.868526 607.19823,447.02887 C601.14885,453.19565 592.78349,457 583.54489,457 L311,457 L311,391 L585.58878,391 C587.30361,391 588.99946,391.141617 590.64469,391.411977 C605.58464,393.877402 617,407.060665 617,422.966839" id="Fill-34" fill="#F99746"></path>
            <path d="M362,423.629864 C362,432.796352 358.37891,441.093826 352.50807,447.125427 L352.40696,447.228421 C346.47925,453.266459 338.28915,457 329.25223,457 L20,457 L20,391 L329.97265,391 C338.97165,391 347.10488,394.785039 352.92516,400.874573 C358.5369,406.751682 362,414.772359 362,423.629864" id="Fill-35" fill="#FCECDB"></path>
            <path d="M388,451.494133 C388,452.743807 387.46084,453.864407 386.57915,454.679922 C385.69746,455.48957 384.47959,456 383.1412,456 L7.871491,456 C5.175679,456 3,453.981747 3,451.494133 C3,450.256193 3.539162,449.129726 4.427195,448.314211 C5.308884,447.498696 6.526756,447 7.871491,447 L383.1412,447 C385.82432,447 388,449.012386 388,451.494133" id="Fill-36" fill="#ED7D2B"></path>
            <path d="M388,396.5 C388,397.743807 387.46084,398.864407 386.57915,399.679922 C385.69746,400.495437 384.47959,401 383.1412,401 L7.871491,401 C5.175679,401 3,398.987614 3,396.5 C3,395.256193 3.539162,394.129726 4.427195,393.314211 C5.308884,392.504563 6.526756,392 7.871491,392 L383.1412,392 C385.82432,392 388,394.018253 388,396.5" id="Fill-37" fill="#ED7D2B"></path>
            <polyline id="Fill-38" fill="#F4D2B8" points="20 425 62 425.624549 20 426 20 425"></polyline>
            <polyline id="Fill-39" fill="#F4D2B8" points="20 435 118 435.623188 20 436 20 435"></polyline>
            <path d="M592,391.411977 L501.9513,457 L311,457 L311,391 L586.91958,391 C588.64273,391 590.3468,391.141617 592,391.411977" id="Fill-40" fill="#ED7D2B"></path>
            <path d="M155.42753,392 L387,392 L387,294 L152.84172,294 C130.84015,294 113,311.642262 113,333.399795 L113,350.043082 C113,373.214258 131.99645,392 155.42753,392" id="Fill-83" fill="#B5453C"></path>
            <path d="M378.51803,392 L645,392 L645,294 L377.64309,294 C356.30221,294 339,311.145916 339,332.294012 L339,352.838954 C339,374.464547 356.6953,392 378.51803,392" id="Fill-84" fill="#FCECDB"></path>
            <path d="M323.13394,391 L653.85972,391 C657.24987,391 660,388.395628 660,385.185169 L660,382.80883 C660,379.604372 657.24987,377 653.85972,377 L323.13394,377 C319.7438,377 317,379.604372 317,382.80883 L317,385.185169 C317,388.395628 319.7438,391 323.13394,391" id="Fill-85" fill="#B5453C"></path>
            <path d="M323.13394,308 L653.85972,308 C657.24987,308 660,305.401629 660,302.19117 L660,299.814831 C660,296.604372 657.24987,294 653.85972,294 L323.13394,294 C319.7438,294 317,296.604372 317,299.814831 L317,302.19117 C317,305.401629 319.7438,308 323.13394,308" id="Fill-86" fill="#B5453C"></path>
            <polyline id="Fill-87" fill="#F4D2B8" points="647 343 610 344.871429 647 346 647 343"></polyline>
            <polyline id="Fill-88" fill="#F4D2B8" points="647 320 558 321.871429 647 323 647 320"></polyline>
            <path d="M558,321 C558,321 563.86015,324.083412 565.80077,329.157935 C566.14549,330.04426 566.36891,330.999243 566.4136,331.997919 C566.73278,338.738982 566.4136,354 566.4136,354 L583.72595,346.36637 L601,354 L601,333.314923 C601,329.407604 599.51262,325.606393 596.76128,323.109703 C595.42711,321.90505 593.81205,321 591.97996,321 L558,321" id="Fill-89" fill="#B5453C"></path>
            <path d="M557,322 C557,322 562.92881,324.914454 564.89216,329.710914 L600,330 C600,330 598.62436,323.132743 591.37804,322 L557,322" id="Fill-90" fill="#9E3732"></path>
            <path d="M82.411636,183 C82.411636,183 70.16968,189.951429 66.744207,189.951429 C63.312415,189.951429 49.857007,187.356482 46.109211,189.269545 C42.361415,191.182609 35.573671,198.885373 34.297019,201.404556 C32.009157,205.925195 43.517986,203.930053 48.959558,200.072357 C49.749566,199.516748 50.729175,199.308394 51.677184,199.516748 C54.495931,200.129181 60.348307,201.189889 63.173373,200.148122 C66.97805,198.740157 87.0000001,197.180663 87.0000001,197.180663 L82.411636,183" id="Fill-91" fill="#E49963"></path>
            <path d="M69,434.97255 C69,434.97255 67.691191,456.652096 63.594869,456.961344 C63.047435,457 42.817522,457 42.817522,457 L17,456.851819 C17,456.851819 17.169894,450.480029 24.714424,449.133514 C32.265247,447.786998 44.893998,442.355837 49.468538,432.13778 C54.282188,421.391425 69,434.97255 69,434.97255" id="Fill-92" fill="#163560"></path>
            <path d="M177,87.7129487 C177,87.7129487 164.20265,178.778972 143.00546,186.932424 C132.54707,190.958111 86.328768,200.081301 72.658297,201 C72.658297,201 69.312378,198.275803 70.128145,187.206758 C70.128145,187.206758 118.55157,169.413347 125.42823,159.73511 C135.66355,145.329402 119.07417,100.893725 131.91612,87.3658847 C144.76446,73.8380442 166.4014,68.0240841 177,87.7129487" id="Fill-93" fill="#ED7D2B"></path>
            <path d="M169.78212,279.243364 C166.07572,285.558359 161.79376,291.473108 157.37265,297.076555 C143.7235,314.388791 128.85996,328.664238 126.27308,342.158252 C125.76076,344.845619 124.93852,347.742639 123.86961,350.792134 C122.78805,353.879747 121.4535,357.132542 119.91022,360.493339 C114.1166,373.129683 105.457804,387.297127 96.80533,400.168536 C81.853247,422.423495 67.792976,441 67.792976,441 L42,439.894558 C43.037285,437.296135 54.282972,406.566122 69.329928,369.012865 C75.43979,353.765391 81.935471,337.552244 88.203455,321.910878 C89.038342,319.820703 89.87323,317.743235 90.701793,315.684826 C92.618241,310.894578 94.503063,306.18692 96.343611,301.599972 C110.46713,266.333836 121.72547,238.253072 121.72547,238.253072 C121.72547,238.253072 178.18792,216.773193 184.05111,230.692866 C188.88334,242.172943 184.94925,253.417955 169.78212,279.243364" id="Fill-94" fill="#599DAD"></path>
            <path d="M126.5872,373 C126.5872,373 144.63616,384.501747 142.87963,388.238868 C142.65052,388.737572 132.67777,406.457333 132.67777,406.457333 L119.80929,429 C119.80929,429 114.39969,425.812084 116.95812,418.558787 C119.5229,411.299177 121.06304,397.638485 114.50789,388.75651 C107.615423,379.407395 126.5872,373 126.5872,373" id="Fill-95" fill="#163560"></path>
            <path d="M118.35161,394 C118.35161,394 129.64101,384.063157 131.62764,376.771052 C131.62764,376.771052 85.126513,321.142531 75.040551,308.675384 C74.582098,308.103205 74.696711,307.473808 75.307982,306.787194 C82.923393,298.217222 167.52704,280.784833 178.58722,263.613103 C182.40129,257.694229 184.55347,252.074159 185.73144,247.166134 C188.2402,236.682541 186.25357,229.441297 186.25357,229.441297 L101.758163,227 C101.758163,227 31.411123,270.739912 23.439137,300.563157 C15.479887,330.386402 118.35161,394 118.35161,394" id="Fill-96" fill="#6BB7BF"></path>
            <path d="M78,306 C85.517241,297.423357 169.03027,279.977396 179.94787,262.792298 C183.71278,256.868815 185.83722,251.24437 187,246.332524 L187,235.643533 L151.5508,230 C151.5508,230 141.50058,261.316199 111.72702,273.055002 C83.839061,284.055756 78.559393,303.569527 78,306" id="Fill-97" fill="#5AA9AD"></path>
            <path d="M126,80.2066113 C142.93019,84.7110864 171,68.5653442 171,68.5653442 C171,68.5653442 160.10008,61.025428 156.06308,44.4648768 C155.85492,43.6300656 155.6783,42.7751306 155.50799,41.8968261 C153.73549,41.5099307 150.39235,40.778984 146.8095,40 L133.87847,51.9249471 C133.87847,51.9249471 134.17494,56.8766889 135.78974,65.3864402 C136.07359,66.8723522 136.39529,68.4653746 136.76745,70.1629106 C129.82254,74.5875399 126,80.2066113 126,80.2066113" id="Fill-98" fill="#E49963"></path>
            <path d="M189.5443,152.137707 C187.10297,184.736856 190.31158,234.310002 187.54685,242.894697 C185.15624,250.307032 157.95913,245.901231 147.10311,243.430452 C143.08283,242.510213 138.21918,241.205491 133.19067,239.661254 C119.16408,235.343695 103.888296,229.179355 102.245943,224.603372 C102.188873,224.426888 102.131803,224.250404 102.100097,224.080222 C101.94791,223.412104 101.979616,222.794409 102.125462,222.164108 C102.670799,219.831996 104.776055,217.30449 105.0297,211.530937 C105.302369,205.082961 105.264322,197.494141 105.505285,189.331748 C105.517967,188.411509 105.530649,187.409331 105.632108,186.495395 L105.638449,186.161335 C105.638449,185.984851 105.64479,185.81467 105.651131,185.638186 C105.885753,176.530342 106.361338,166.962378 106.919357,157.47005 C107.274461,151.507406 107.680293,145.601489 108.14954,139.947692 C109.37338,125.343626 111.02207,112.359433 113.20342,104.146615 C116.76713,90.7659628 124.63014,82.0381897 131.78294,75.6418987 L136.9573,71.2297942 C142.72773,72.4834622 149.55713,71.6514653 155.73339,68.7438884 C162.41694,65.5892337 164.72511,63.3289756 165.88554,64.1811421 C181.31986,76.0175579 192.42318,112.2901 189.5443,152.137707" id="Fill-99" fill="#F99746"></path>
            <path d="M133.09494,240 C119.06639,235.641751 103.788451,229.419318 102.145867,224.80021 C102.088788,224.622063 102.03171,224.443916 102,224.272131 C102.006342,223.623165 102.012684,222.980562 102.025368,222.337959 C102.570782,219.983869 104.676334,217.432543 104.930015,211.604579 C105.202722,205.095837 105.16467,197.435499 105.405667,189.196183 C105.418351,188.267271 105.431035,187.255649 105.532507,186.3331 L105.538849,185.995892 C105.538849,185.817745 105.545191,185.64596 105.551534,185.467812 L162.24289,113 C162.24289,113 200.35845,192.619157 133.09494,240" id="Fill-100" fill="#ED7D2B"></path>
            <path d="M132,55.273685 C132,55.273685 132.294,59.9549953 133.89537,68 C146.42479,64.028128 152.10463,52.928734 154,48.2210346 C153.79357,47.4318153 153.61842,46.6235712 153.44953,45.7932339 C151.69178,45.4274682 148.37646,44.736441 144.82343,44 L132,55.273685" id="Fill-101" fill="#D68D5D"></path>
            <path d="M132.67689,62.9844988 C132.67689,62.9844988 160.95241,58.1997742 157.74664,40.3905132 C154.5344,22.5812522 156.02395,9.96906757 137.83203,12.2711458 C119.64011,14.5732241 117.36692,22.0172234 117.01073,28.2261373 C116.65453,34.4343946 125.23563,63.7704622 132.67689,62.9844988" id="Fill-102" fill="#E49963"></path>
            <polyline id="Fill-103" fill="#4A75CB" points="23 209.204056 20.581922 210 -1.13686838e-13 145.795944 2.418078 145 23 209.204056"></polyline>
            <polyline id="Fill-104" fill="#4A75CB" points="91.910748 204 21 205.581395 21.095627 210 92 208.425249 91.910748 204"></polyline>
            <path d="M89.9999997,212.673275 C89.9999997,212.673275 66.938553,218.574524 58.28567,217.954329 C49.639241,217.334134 42.45109,213.343587 41.360607,211.257477 C40.270124,209.171367 37.985918,205.475256 43.877105,206.158097 C49.761839,206.840938 57.801728,208.056269 58.046926,206.959965 C58.298575,205.857396 53.246221,205.963894 53.246221,205.963894 C53.246221,205.963894 51.723417,203.808874 53.64628,203.733698 C55.569143,203.652259 61.169964,202.173814 63.254141,203.188679 C65.338318,204.197279 67.254728,207.930977 68.777532,207.774362 C70.300336,207.617747 88.077137,200 88.077137,200 L89.9999997,212.673275" id="Fill-105" fill="#E49963"></path>
            <path d="M171,90.5478812 C171,90.5478812 168.33998,181.983882 148.44327,192.372462 C138.62697,197.500118 94.293283,211.594825 80.980599,214 C80.980599,214 77.402462,211.677324 77,200.647788 C77,200.647788 122.55365,177.738336 128.251,167.413217 C136.72157,152.049288 115.62376,109.936512 126.74806,95.1500791 C137.87865,80.3687231 158.46709,72.2457041 171,90.5478812" id="Fill-106" fill="#F99746"></path>
            <path d="M155.11821,47 C155.11821,47 155.43763,41.0003928 151.7706,37.5634804 C151.7706,37.5634804 153.04832,31.5484003 150.69094,30.5568469 C148.33356,29.5652936 147.84164,34.6217001 146.76198,33.8287153 C145.67592,33.0350857 140.86534,29.2674407 138.80184,23.7152574 C136.73834,18.1624295 117.85377,24.8873277 115.64972,25.8872623 C113.45206,26.8878415 106.379928,23.2194807 105,20.2448206 C105,20.2448206 108.92896,17.0722365 110.69859,14.6919926 C112.46822,12.3123934 124.84924,-3.75038483 142.14305,0.810889737 C159.43048,5.3721643 161.79425,13.7004392 160.81041,20.8392368 C159.82657,27.9786792 162.20311,44.6042832 155.11821,47" id="Fill-107" fill="#2B478B"></path>
            <path d="M342.43638,124 C342.43638,124 351.1649,136.924625 356.14002,164.097216 C360.50428,187.892138 364.32694,196.6829 370.62457,201.560355 C376.9222,206.43781 411.999997,220.849618 411.999997,220.849618 L409.38019,227 C409.38019,227 357.96004,219.992597 352.17882,211.390884 C346.40389,202.789171 324.38738,151.9855 326.09403,140.283389 C327.80069,128.581279 342.43638,124 342.43638,124" id="Fill-108" fill="#F4A269"></path>
            <path d="M468.84727,408.368498 C468.37381,413.498628 475.56658,414.748936 483.89438,415.161409 C492.22217,415.573882 489.70567,417.268887 501.11423,419.318361 C512.52927,421.37428 517.10177,418.267844 517.93195,416.740406 C518.66485,415.380535 513.35945,413.253722 507.70382,410.849779 C506.99038,410.54687 506.27694,410.237515 505.56998,409.928161 C499.20091,407.150414 495.63371,401.478914 490.67206,396.219886 C485.96984,391.237988 481.50759,375.293337 481.50759,375.293337 L466,372 C466,372 470.35198,386.352764 471.86318,392.481851 C472.75174,396.084543 471.4416,400.112597 470.27415,403.180364 C469.65152,404.84959 469.01591,406.557485 468.84727,408.368498" id="Fill-109" fill="#FFB27D"></path>
            <path d="M484.32209,414.109523 C492.78962,414.526419 490.23089,416.2396 501.83088,418.311052 C513.43747,420.389017 518.0867,417.24927 518.93081,415.705452 C519.67601,414.330999 514.28158,412.181379 508.53105,409.751658 L508.43872,409.849368 C508.43872,409.849368 500.28114,412.585247 490.86398,410.057816 C483.18781,407.999392 475.76223,403.46565 470.47332,402 C469.84023,403.687126 469.19396,405.413335 469.0225,407.243769 C468.54109,412.428911 475.85456,413.692627 484.32209,414.109523" id="Fill-110" fill="#C65447"></path>
            <path d="M318.67684,229.277969 C318.67684,229.277969 418.96011,221.753026 437.8429,233.641806 C456.71938,245.530586 486.999998,384.002129 486.999998,384.002129 C486.999998,384.002129 485.13192,385.500821 480.95397,385.947909 C477.07265,386.36981 468.52743,384.090287 468.52743,384.090287 C468.52743,384.090287 425.01245,322.133875 421.94526,306.523554 C418.87806,290.913233 419.62908,276.984218 412.64902,276.612693 C405.66895,276.241169 318.66422,287.166504 305.50559,264.031241 C292.34696,240.902274 303.22098,218 303.22098,218 L318.67684,229.277969" id="Fill-111" fill="#163560"></path>
            <path d="M430.8537,424.367877 C430.38024,429.49792 437.56637,430.748207 445.89398,431.160672 C454.22807,431.573138 451.70515,433.268114 463.11994,435.317553 C474.53473,437.373437 479.10713,434.2735 479.93081,432.739643 C480.67018,431.379795 475.36489,429.253018 469.70938,426.849116 C468.99596,426.552657 468.28253,426.243307 467.56911,425.933958 C461.20666,423.149814 457.63954,417.47841 452.67151,412.219472 C447.97588,407.23766 443.51374,391.293281 443.51374,391.293281 L428,388 C428,388 432.35837,402.352519 433.86954,408.481502 C434.75807,412.084132 433.44797,416.118562 432.28055,419.179832 C431.65144,420.849029 431.02233,422.556895 430.8537,424.367877" id="Fill-112" fill="#FFB27D"></path>
            <path d="M445.31717,432.108933 C453.79221,432.525808 451.22662,434.238907 462.83446,436.310257 C474.4423,438.388121 479.09203,435.255041 479.92964,433.704785 C480.68151,432.330398 475.2865,430.180883 469.53535,427.75128 L469.44301,427.848986 C469.44301,427.848986 461.28455,430.584732 451.86637,428.057423 C444.18936,425.9991 436.76298,421.465578 431.4735,420 C430.83375,421.687043 430.194,423.413169 430.02252,425.243513 C429.54106,430.428403 436.84872,431.692057 445.31717,432.108933" id="Fill-113" fill="#C65447"></path>
            <path d="M297.49848,234 C297.49848,234 387.03566,238.262782 405.52538,251.044748 C424.02144,263.826714 449.000003,405.24516 449.000003,405.24516 C449.000003,405.24516 447.0654,406.687359 442.85368,406.980904 C438.94007,407.248923 430.44685,404.607019 430.44685,404.607019 C430.44685,404.607019 389.17323,340.15477 386.70582,324.226768 C384.23841,308.298767 385.53872,294.227756 378.54244,293.57047 C371.54616,292.919566 283.74061,300.558115 271.43528,276.615062 C259.1236,252.672008 297.49848,234 297.49848,234" id="Fill-114" fill="#1C468A"></path>
            <path d="M330.88592,36.5631988 C326.90772,33.9259518 321.96358,33.3364946 318.48107,33.310339 C319.43431,32.4446534 321.2137,32.2252018 321.2137,32.2252018 C319.08479,31.760143 314.14065,33.5801879 314.14065,33.5801879 C284.9969,20.0067228 277.35826,63.9085287 277.30742,74.2233926 C277.25023,84.5363426 276.53847,96.3644019 260.99429,104.581079 C230.40797,120.740118 253.0951,154.047004 253.0951,154.047004 C253.31752,154.200109 273.48175,181 273.48175,181 C273.27839,172.642976 306.10165,128.376268 326.87595,116.587123 C332.19503,109.748399 334.76243,97.2128631 334.95308,96.2240549 C333.45331,106.201448 331.36889,111.713256 329.63399,114.781751 C347.52315,100.332393 341.43512,43.5524776 330.88592,36.5631988" id="Fill-115" fill="#B5453C"></path>
            <path d="M295.13075,109.37128 C295.13075,109.37128 303.21363,108.5359 311.29036,109.37128 C316.77934,109.932656 322.21915,111.790543 325.31092,113.193983 C332.95739,116.669167 332.15832,131.391919 316.10935,128.665236 C300.06653,125.938553 294.00591,113.73531 295.13075,109.37128" id="Fill-116" fill="#FFB27D"></path>
            <path d="M324.41526,118.339208 C324.50957,118.390429 326.75423,130.472291 316.00877,129.985687 C308.95411,129.671955 293.73819,120.977113 295.08373,114.824136 C295.71877,111.904512 301.05063,104.317334 302.12581,87 L303.40847,87.3495864 L325.000003,93.2470969 C325.000003,93.2470969 324.04429,100.22602 323.59787,106.833588 C323.22062,112.378311 323.20804,117.660524 324.41526,118.339208" id="Fill-117" fill="#FFB27D"></path>
            <path d="M327,92.0536952 C327,92.0536952 326.02621,99.2174427 325.57135,106 C313.11706,104.784135 307.28072,92.6583418 305,86 L327,92.0536952" id="Fill-118" fill="#F4A269"></path>
            <path d="M300.00045,85 C300.00045,85 294.06118,74.2332043 293.06588,65.2947203 C292.3503,58.9135665 297.1967,35.7508943 320.82367,40.6836204 C320.82367,40.6836204 327.70619,41.8111006 333.92518,46.5695797 C338.86915,50.3543259 345.84275,58.282562 336.10443,78.133261 L333.46982,84.8814865 L300.00045,85" id="Fill-119" fill="#B5453C"></path>
            <path d="M329.72669,99 C329.72669,99 299.81733,97.510405 301.03627,79.0020258 C302.25521,60.4910672 299.21435,47.832089 318.36723,48.0016836 C337.51362,48.1706333 340.75548,55.4760973 341.85771,61.7530314 C342.95994,68.0299656 337.53956,98.91617 329.72669,99" id="Fill-120" fill="#FFB27D"></path>
            <path d="M332,50.0405317 C332,50.0405317 322.22055,70.0063098 309.26244,72.2489861 C296.29775,74.4916623 291,70.9969062 291,70.9969062 C291,70.9969062 301.29278,64.4245513 304.22135,52.0253732 C304.22135,52.0253732 326.439,39.9083539 332,50.0405317" id="Fill-121" fill="#B5453C"></path>
            <path d="M330,50.890364 C330,50.890364 335.60719,55.6342546 336.74497,59.9792787 C337.88275,64.3243028 337.90161,73.12615 340.68006,72.9986292 C340.68006,72.9986292 347.61361,60.0398365 341.44068,52.0857988 C334.89686,43.6513745 330,50.890364 330,50.890364" id="Fill-122" fill="#B5453C"></path>
            <path d="M359.43938,230.663235 C357.08591,233.505811 349.72894,234.377026 341.87351,235.680669 C335.68382,236.710865 329.19126,238.001789 324.56634,240.736259 C314.07351,246.94287 279.79356,267.928337 269.74871,266.968093 C265.8557,266.599257 266.5813,259.108081 268.94109,249.162242 C272.65743,233.461297 280.43083,211.64913 280.43083,202.167514 C280.43083,196.991099 282.14073,184.743217 284.41848,170.740187 C284.60777,169.614603 284.79706,168.476301 284.98635,167.325279 C289.4977,140.101405 295.75049,108 295.75049,108 C295.75049,108 302.71626,123.332109 316.3071,123.332109 C329.88531,123.332109 326.73052,111.637481 326.73052,111.637481 C326.73052,111.637481 339.12254,113.106464 342.05018,116.28608 C344.98414,119.465696 352.41051,133.207997 353.88064,136.953585 C353.88064,136.953585 354.1835,141.72301 342.46661,143.993256 C342.46661,143.993256 345.31854,156.940653 345.65926,165.563772 C345.91164,171.942082 341.34351,191.890994 340.03112,204.297857 C339.56421,208.692086 339.50111,212.14515 340.21409,213.709521 C341.11636,215.712679 344.05032,217.709478 347.38178,219.668122 C354.00683,223.553613 362.23453,227.292841 359.43938,230.663235" id="Fill-123" fill="#1C468A"></path>
            <path d="M345.71568,219.652113 C353.26794,232.579016 325.24475,236.459631 320.60061,239.195147 C310.07053,245.410494 277.84671,267.930788 267.76013,266.970176 C263.85095,266.6012 264.57956,259.107158 266.94915,249.157514 C270.68093,233.450564 278.48662,211.630053 278.48662,202.144811 C278.48662,196.966416 280.20362,184.713849 282.49084,170.705463 L294.63655,159 C294.63655,159 307.65026,192.767717 320.05573,198.302366 C326.55625,201.203285 333.34188,203.118146 338.33449,204.275969 C337.86564,208.671879 337.80228,212.126263 338.51822,213.691233 C339.42424,215.695157 342.37038,217.69272 345.71568,219.652113" id="Fill-124" fill="#163560"></path>
            <polygon id="Fill-125" fill="#9E332E" points="361 232 388 232 388 228 361 228"></polygon>
            <path d="M384,231 C384.27578,229.879657 409.61599,189 409.61599,189 L466,189 L437.72025,229.898973 L384,231" id="Fill-126" fill="#9E332E"></path>
            <path d="M386,231 C386.27078,229.891888 411.81234,189 411.81234,189 L466,189 L438.96599,231 L386,231" id="Fill-127" fill="#B5453C"></path>
            <path d="M433.83704,211.003222 C433.29519,212.659506 431.59052,214 430.02587,214 C428.45514,214 427.62716,212.659506 428.16291,211.003222 C428.70475,209.340494 430.40943,208 431.98016,208 C433.54481,208 434.37279,209.340494 433.83704,211.003222" id="Fill-128" fill="#9E332E"></path>
            <path d="M370.70571,215.601207 C369.10133,214.913381 356.74823,217.174291 353.22239,217.836643 C342.02977,215.633051 305.24314,208.251657 303.44852,205.939797 C301.33682,203.207598 296.7266,120.057053 291.44419,118.668663 C291.44419,118.668663 281.05059,112.331745 270.99942,124.355967 C260.9546,136.380188 278.13987,222.326619 293.02955,226.746539 C309.56799,231.650485 357.34432,225.963182 357.34432,225.963182 L357.34432,225.956813 C361.26967,227.30699 368.13109,228.064873 371.77108,229.281306 C376.57788,230.892603 380.852,229.548794 381.9237,227.67001 C382.98906,225.797594 372.57644,216.41004 370.70571,215.601207" id="Fill-129" fill="#FFB27D"></path>
            <path d="M295.03581,107 C295.03581,107 273.40275,108.979224 267.12364,116.210248 C260.8381,123.441273 259,143.037545 259,143.037545 C259,143.037545 278.04943,158.668838 301,152.600526 L295.03581,107" id="Fill-130" fill="#1C468A"></path>
        </g>
    </g>
</svg>