<svg width="114" height="349" viewBox="0 0 114 349" fill="none" xmlns="http://www.w3.org/2000/svg">
<path d="M9.19659 4.16755L10.7731 7.35385L11.0922 8.0286L11.8242 8.12231L15.3527 8.64712L12.8001 11.1212L12.2746 11.646L12.406 12.377L13.0066 15.8819L9.85347 14.2325L9.19659 13.8764L8.53968 14.2325L5.38658 15.8819L5.98716 12.377L6.09977 11.646L5.57425 11.1212L3.02173 8.64712L6.55022 8.12231L7.2822 8.0286L7.62001 7.35385L9.19659 4.16755V4.16755ZM9.19659 1L6.34377 6.73534L0 7.65374L4.59828 12.1333L3.50973 18.4497L9.14029 15.4695L14.7708 18.4497L13.701 12.1333L18.2993 7.65374L11.9368 6.73534L9.10274 1H9.19659Z" fill="#F6A70B"/>
<path d="M33.0889 4.16755L34.6655 7.35385L35.0033 8.0286L35.7353 8.12231L39.2637 8.64712L36.7112 11.1212L36.1857 11.646L36.2983 12.377L36.8989 15.8819L33.7458 14.2325L33.0889 13.8764L32.432 14.2325L29.2789 15.8819L29.8795 12.377L30.0109 11.646L29.4854 11.1212L26.9328 8.64712L30.4613 8.12231L31.1933 8.0286L31.5124 7.35385L33.0889 4.16755V4.16755ZM33.0889 1L30.3299 6.73534L23.9674 7.65374L28.4531 12.1333L27.3833 18.4497L33.0138 15.4695L38.6444 18.4497L37.5558 12.1333L42.1541 7.65374L35.9605 6.73534L33.1077 1H33.0889Z" fill="#F6A70B"/>
<path d="M56.9999 4.16797L58.5765 7.35427L58.9143 8.02901L59.6463 8.12273L63.1748 8.64753L60.6222 11.1216L60.078 11.6464L60.2093 12.3774L60.8099 15.8823L57.6568 14.2329L56.9999 13.8768L56.343 14.2329L53.1899 15.8823L53.7905 12.3774L53.9219 11.6464L53.3776 11.1216L50.8251 8.64753L54.3536 8.17896L55.0855 8.08524L55.4234 7.4105L56.9999 4.2242V4.16797ZM56.9999 1.05664L54.1659 6.79198L47.8033 7.71038L52.4016 12.1899L51.313 18.5063L56.9436 15.5262L62.5742 18.5063L61.4856 12.1899L66.0839 7.71038L59.7214 6.79198L56.8873 1.05664H56.9999Z" fill="#F6A70B"/>
<path d="M81.0049 4.16733L82.5815 7.35363L82.9005 8.02838L83.6325 8.12209L87.161 8.64689L84.6085 11.121L84.0829 11.6458L84.2143 12.3767L84.8149 15.8817L81.643 14.2323L81.0049 13.8012L80.348 14.1573L77.1761 15.8067L77.7955 12.3018L77.9081 11.5708L77.3826 11.046L74.8301 8.57192L78.3585 8.04712L79.0905 7.9534L79.4096 7.27866L81.0049 4.09236V4.16733ZM81.0049 0.924805L78.1521 6.66014L71.8083 7.57855L76.4066 12.0581L75.3181 18.3745L80.9486 15.3943L86.5792 18.3745L85.5093 12.0581L90.0889 7.57855L83.7451 6.66014L81.0049 0.999776V0.924805Z" fill="#F6A70B"/>
<path d="M104.803 4.16755L106.38 7.35385L106.718 8.0286L107.45 8.12231L110.978 8.64712L108.426 11.1212L107.9 11.646L108.013 12.377L108.613 15.8819L105.404 14.2325L104.747 13.8764L104.09 14.2325L100.937 15.8819L101.538 12.377L101.669 11.646L101.144 11.1212L98.591 8.64712L102.12 8.12231L102.851 8.0286L103.171 7.35385L104.747 4.16755H104.803ZM104.747 1L101.913 6.73534L95.5505 7.65374L100.149 12.1333L99.0602 18.4497L104.691 15.4695L110.321 18.4497L109.233 12.1333L113.831 7.65374L107.487 6.73534L104.634 1H104.747Z" fill="#F6A70B"/>
<path d="M9.19658 48.532L3.50971 51.5122L4.59829 45.1958L0 40.7162L6.34376 39.7978L9.19658 34.0625V48.532Z" fill="#F6A70B"/>
<path d="M33.0889 37.2302L34.6655 40.4165L35.0033 41.0725L35.7353 41.185L39.2637 41.6911L36.7112 44.1839L36.1857 44.7087L36.2983 45.4209L36.8989 48.9446L33.7458 47.2765L33.0889 46.9391L32.432 47.2765L29.2789 48.9446L29.8795 45.4209L30.0109 44.7087L29.4854 44.1839L26.9328 41.6911L30.4613 41.185L31.1933 41.0725L31.5124 40.4165L33.0889 37.2302V37.2302ZM33.0889 34.0439L30.3299 39.798L23.9674 40.7164L28.4531 45.196L27.3833 51.5124L33.0138 48.5322L38.6444 51.5124L37.5558 45.196L42.1541 40.7164L35.9605 39.798L33.1077 34.0439H33.0889Z" fill="#F6A70B"/>
<path d="M9.19659 37.2302L10.7731 40.4165L11.0922 41.0725L11.8242 41.185L15.3527 41.6911L12.8001 44.1839L12.2746 44.7087L12.406 45.4209L13.0066 48.9446L9.85347 47.2765L9.19659 46.9391L8.53968 47.2765L5.38658 48.9446L5.98716 45.4209L6.09977 44.7087L5.57425 44.1839L3.02173 41.6911L6.55022 41.185L7.2822 41.0725L7.62001 40.4165L9.19659 37.2302V37.2302ZM9.19659 34.0439L6.34377 39.798L0 40.7164L4.59828 45.196L3.50973 51.5124L9.14029 48.5322L14.7708 51.5124L13.701 45.196L18.2993 40.7164L11.9368 39.798L9.10274 34.0439H9.19659Z" fill="#F6A70B"/>
<path d="M56.9999 37.2302L58.5765 40.4165L58.9143 41.0725L59.6463 41.185L63.1748 41.6911L60.6222 44.1839L60.078 44.7087L60.2093 45.4209L60.8099 48.9446L57.6568 47.2765L56.9999 46.9391L56.343 47.2765L53.1899 48.9446L53.7905 45.4209L53.9219 44.7087L53.3776 44.1839L50.8251 41.6911L54.3536 41.185L55.0855 41.0725L55.4234 40.4165L56.9999 37.2302V37.2302ZM56.9999 34.0439L54.1659 39.798L47.8033 40.7164L52.4016 45.196L51.313 51.5124L56.9436 48.5322L62.5742 51.5124L61.4856 45.196L66.0839 40.7164L59.7214 39.798L56.8873 34.0439H56.9999Z" fill="#F6A70B"/>
<path d="M81.0049 37.2302L82.5815 40.4165L82.9005 41.0725L83.6325 41.185L87.161 41.6911L84.6085 44.1839L84.0829 44.7087L84.2143 45.4209L84.8149 48.9446L81.643 47.2765L81.0049 46.9391L80.348 47.2765L77.1761 48.9446L77.7955 45.4209L77.9081 44.7087L77.3826 44.1839L74.8301 41.6911L78.3585 41.185L79.0905 41.0725L79.4096 40.4165L81.0049 37.2302V37.2302ZM81.0049 34.0439L78.1521 39.798L71.8083 40.7164L76.4066 45.196L75.3181 51.5124L80.9486 48.5322L86.5792 51.5124L85.5093 45.196L90.0889 40.7164L83.7451 39.798L81.0049 34.0439V34.0439Z" fill="#F6A70B"/>
<path d="M104.803 37.2302L106.38 40.4165L106.718 41.0725L107.45 41.185L110.978 41.6911L108.426 44.1839L107.9 44.7087L108.013 45.4209L108.613 48.9446L105.404 47.2765L104.747 46.9391L104.09 47.2765L100.937 48.9446L101.538 45.4209L101.669 44.7087L101.144 44.1839L98.591 41.6911L102.12 41.185L102.851 41.0725L103.171 40.4165L104.747 37.2302H104.803ZM104.747 34.0439L101.913 39.798L95.5505 40.7164L100.149 45.196L99.0602 51.5124L104.691 48.5322L110.321 51.5124L109.233 45.196L113.831 40.7164L107.487 39.798L104.634 34.0439H104.747Z" fill="#F6A70B"/>
<path d="M9.19658 67.1055L12.0306 72.8595L18.3932 73.778L13.7949 78.2575L14.8834 84.5739L9.19658 81.5938L3.50971 84.5739L4.59829 78.2575L0 73.778L6.34376 72.8595L9.19658 67.1055Z" fill="#F6A70B"/>
<path d="M33.0889 70.273L34.6655 73.4593L35.0033 74.1341L35.7353 74.2465L39.2637 74.7526L36.7112 77.2454L36.1857 77.7514L36.2983 78.4824L36.8989 81.9874L33.7458 80.338L33.0889 79.9819L32.432 80.338L29.2789 81.9874L29.8795 78.4824L30.0109 77.7514L29.4854 77.2454L26.9328 74.7526L30.4613 74.2465L31.1933 74.1341L31.5124 73.4593L33.0889 70.273V70.273ZM33.0889 67.1055L30.3299 72.8408L23.9674 73.7592L28.4531 78.2388L27.3833 84.5551L33.0138 81.575L38.6444 84.5551L37.5558 78.2388L42.2855 73.778L35.9605 72.8408L33.1077 67.1055H33.0889Z" fill="#F6A70B"/>
<path d="M56.9999 70.273L58.5765 73.4593L58.9143 74.1341L59.6463 74.2465L63.1748 74.7526L60.6222 77.2454L60.078 77.7514L60.2093 78.4824L60.8099 81.9874L57.6568 80.338L56.9999 79.9819L56.343 80.338L53.1899 81.9874L53.7905 78.4824L53.9219 77.7514L53.3776 77.2454L50.8251 74.7526L54.3536 74.2465L55.0855 74.1341L55.4234 73.4593L56.9999 70.273V70.273ZM56.9999 67.1055L54.1659 72.8408L47.8033 73.7592L52.4016 78.2388L51.313 84.5551L56.9436 81.575L62.5742 84.5551L61.4856 78.2388L66.1965 73.778L59.834 72.8595L56.9999 67.1242V67.1055Z" fill="#F6A70B"/>
<path d="M81.0049 70.273L82.5815 73.4593L82.9005 74.1341L83.6325 74.2465L87.161 74.7526L84.6085 77.2454L84.0829 77.7514L84.2143 78.4824L84.8149 81.9874L81.643 80.338L81.0049 79.9819L80.348 80.338L77.1761 81.9874L77.7955 78.4824L77.9081 77.7514L77.3826 77.2454L74.8301 74.7526L78.3585 74.2465L79.0905 74.1341L79.4096 73.4593L81.0049 70.273V70.273ZM81.0049 67.1055L78.1521 72.8408L71.8083 73.7592L76.4066 78.2388L75.3181 84.5551L80.9486 81.575L86.5792 84.5551L85.5093 78.2388L90.0889 73.778L83.7451 72.8595L81.0049 67.1055V67.1055Z" fill="#F6A70B"/>
<path d="M104.803 70.273L106.38 73.4593L106.718 74.1341L107.45 74.2465L110.978 74.7526L108.426 77.2454L107.9 77.7514L108.013 78.4824L108.613 81.9874L105.404 80.338L104.747 79.9819L104.09 80.338L100.937 81.9874L101.538 78.4824L101.669 77.7514L101.144 77.2454L98.591 74.7526L102.12 74.2465L102.851 74.1341L103.171 73.4593L104.747 70.273H104.803ZM104.747 67.1055L101.913 72.8408L95.5505 73.7592L100.149 78.2388L99.0602 84.5551L104.691 81.575L110.321 84.5551L109.233 78.2388L114 73.778L107.656 72.8595L104.803 67.1242L104.747 67.1055Z" fill="#F6A70B"/>
<path d="M9.19658 100.169L12.0306 105.904L18.3932 106.841L13.7949 111.302L14.8834 117.619L9.19658 114.638L3.50971 117.619L4.59829 111.302L0 106.841L6.34376 105.904L9.19658 100.169Z" fill="#F6A70B"/>
<path d="M56.9999 103.336L58.5765 106.522L58.9143 107.178L59.6463 107.291L63.1748 107.797L60.6222 110.29L60.078 110.815L60.2093 111.527L60.8099 115.05L57.6568 113.382L56.9999 113.045L56.343 113.382L53.1899 115.05L53.7905 111.527L53.9219 110.815L53.3776 110.29L50.8251 107.797L54.3536 107.291L55.0855 107.178L55.4234 106.522L56.9999 103.336V103.336ZM56.9999 100.15L54.1659 105.904L47.8033 106.822L52.4016 111.264L51.313 117.581L56.9436 114.601L62.5742 117.581L61.5982 111.264L66.1965 106.785L59.834 105.866L56.9999 100.112V100.15Z" fill="#F6A70B"/>
<path d="M81.0049 103.337L82.5815 106.523L82.9005 107.179L83.6325 107.291L87.161 107.798L84.6085 110.29L84.0829 110.815L84.2143 111.527L84.7586 115.014L81.5867 113.345L81.0049 113.139L80.348 113.477L77.1761 115.145L77.7955 111.621L77.9081 110.909L77.3826 110.384L74.8301 107.891L78.3585 107.385L79.0905 107.273L79.4096 106.617L81.0049 103.43V103.337ZM81.0049 100.244L78.1521 105.998L71.8083 106.917L76.3128 111.265L75.2242 117.581L80.8548 114.601L86.4853 117.581L85.5093 111.265L90.0889 106.785L83.7451 105.867L81.0049 100.15V100.244Z" fill="#F6A70B"/>
<path d="M104.803 103.336L106.38 106.522L106.718 107.178L107.45 107.291L110.978 107.797L108.426 110.29L107.9 110.815L108.013 111.527L108.613 115.05L105.404 113.382L104.747 113.045L104.09 113.382L100.937 115.05L101.538 111.527L101.669 110.815L101.144 110.29L98.591 107.797L102.12 107.291L102.851 107.178L103.171 106.522L104.747 103.336H104.803ZM104.747 100.15L101.913 105.904L95.5505 106.822L100.205 111.264L99.1165 117.581L104.747 114.601L110.378 117.581L109.402 111.264L114 106.785L107.656 105.866L104.803 100.112L104.747 100.15Z" fill="#F6A70B"/>
<path d="M33.1077 114.638L27.4208 117.619L28.5094 111.302L23.9111 106.841L30.2549 105.904L33.1077 100.169V114.638Z" fill="#F6A70B"/>
<path d="M33.0889 103.336L34.6655 106.522L35.0033 107.178L35.7353 107.291L39.2637 107.797L36.7112 110.29L36.1857 110.815L36.2983 111.527L36.8989 115.013L33.7458 113.345L33.0889 113.007L32.432 113.345L29.2789 115.013L29.8795 111.489L30.0109 110.777L29.4854 110.252L26.9328 107.759L30.4613 107.253L31.1933 107.141L31.5124 106.485L33.0889 103.299V103.336ZM33.0889 100.112L30.3299 105.904L23.9674 106.822L28.4531 111.264L27.3833 117.581L33.0138 114.601L38.6444 117.581L37.6872 111.264L42.2855 106.785L35.9605 105.904L33.1077 100.15L33.0889 100.112Z" fill="#F6A70B"/>
<path d="M9.19658 133.213L12.0306 138.967L18.3932 139.885L13.7949 144.365L14.8834 150.681L9.19658 147.701L3.50971 150.681L4.59829 144.365L0 139.885L6.34376 138.967L9.19658 133.213Z" fill="#F6A70B"/>
<path d="M33.1077 133.213L35.9418 138.967L42.2855 139.885L37.6872 144.365L38.7758 150.681L33.1077 147.701L27.4208 150.681L28.5094 144.365L23.9111 139.885L30.2549 138.967L33.1077 133.213Z" fill="#F6A70B"/>
<path d="M56.9999 136.38L58.5765 139.585L58.9143 140.241L59.6463 140.353L63.1748 140.859L60.6222 143.352L60.078 143.858L60.2093 144.589L60.8099 148.094L57.6568 146.445L56.9999 146.089L56.343 146.445L53.1899 148.094L53.7905 144.589L53.9219 143.858L53.3776 143.352L50.8251 140.859L54.3536 140.353L55.0855 140.241L55.4234 139.585L56.9999 136.38V136.38ZM56.9999 133.212L54.1659 138.948L47.8033 139.885L52.4016 144.346L51.313 150.624L56.9436 147.644L62.5742 150.624L61.4856 144.308L66.0839 139.847L59.7214 138.91L56.8873 133.175L56.9999 133.212Z" fill="#F6A70B"/>
<path d="M81.0049 136.38L82.5815 139.585L82.9005 140.241L83.6325 140.354L87.161 140.86L84.6085 143.353L84.0829 143.859L84.2143 144.59L84.8149 148.095L81.643 146.445L81.0049 146.089L80.348 146.445L77.1761 148.095L77.7955 144.59L77.9081 143.859L77.3826 143.353L74.8301 140.86L78.3585 140.354L79.0905 140.241L79.4096 139.585L81.0049 136.38ZM81.0049 133.213L78.1521 138.948L71.8083 139.885L76.4066 144.346L75.2242 150.625L80.8548 147.645L86.6355 150.625L85.5656 144.309L90.1452 139.848L83.8014 138.911L81.0049 133.213V133.213Z" fill="#F6A70B"/>
<path d="M104.803 136.38L106.38 139.585L106.718 140.241L107.45 140.353L110.978 140.859L108.426 143.352L107.9 143.858L108.013 144.589L108.613 148.094L105.404 146.445L104.747 146.089L104.09 146.445L100.937 148.094L101.538 144.589L101.669 143.858L101.144 143.352L98.591 140.859L102.12 140.353L102.851 140.241L103.171 139.585L104.747 136.38H104.803ZM104.747 133.212L101.913 138.948L95.5505 139.885L100.149 144.346L99.1165 150.624L104.747 147.644L110.378 150.624L109.289 144.308L113.887 139.847L107.544 138.91L104.691 133.175L104.747 133.212Z" fill="#F6A70B"/>
<path d="M9.19658 166.275L12.0306 172.011L18.3932 172.929L13.7949 177.409L14.8834 183.725L9.19658 180.745L3.50971 183.725L4.59829 177.409L0 172.929L6.34376 172.011L9.19658 166.275Z" fill="#F6A70B"/>
<path d="M33.1077 166.275L35.9418 172.011L42.2855 172.929L37.6872 177.409L38.7758 183.725L33.1077 180.745L27.4208 183.725L28.5094 177.409L23.9111 172.929L30.2549 172.011L33.1077 166.275Z" fill="#F6A70B"/>
<path d="M81.0049 169.368L82.5815 172.554L82.9005 173.21L83.6325 173.323L87.161 173.829L84.6085 176.322L84.0829 176.846L84.2143 177.559L84.8149 181.082L81.643 179.414L81.0049 179.077L80.348 179.414L77.1761 181.082L77.7955 177.559L77.9081 176.846L77.3826 176.322L74.8301 173.829L78.3585 173.323L79.0905 173.21L79.4096 172.554L81.0049 169.368ZM81.0049 166.182L78.1521 171.936L71.8083 172.854L76.4066 177.334L75.3181 183.65L80.9486 180.67L86.5792 183.65L85.5093 177.334L90.0889 172.854L83.7451 171.936L81.0049 166.257V166.182Z" fill="#F6A70B"/>
<path d="M104.803 169.368L106.38 172.554L106.718 173.21L107.45 173.323L110.978 173.829L108.426 176.321L107.9 176.846L108.013 177.558L108.613 181.082L105.404 179.489L104.747 179.152L104.09 179.489L100.937 181.157L101.538 177.633L101.65 176.865L101.125 176.34L98.5722 173.847L102.101 173.341L102.833 173.229L103.152 172.573L104.728 169.386L104.803 169.368ZM104.728 166.2L101.894 171.954L95.5317 172.873L100.13 177.352L99.0414 183.669L104.672 180.688L110.303 183.669L109.214 177.352L113.812 172.873L107.469 171.954L104.616 166.2H104.728Z" fill="#F6A70B"/>
<path d="M57 180.745L51.3132 183.725L52.4018 177.409L47.8035 172.929L54.166 172.011L57 166.275V180.745Z" fill="#F6A70B"/>
<path d="M56.9999 169.368L58.5765 172.554L58.9143 173.21L59.6463 173.323L63.1748 173.829L60.6222 176.322L60.078 176.846L60.2093 177.559L60.8099 181.082L57.6568 179.414L56.9999 179.077L56.343 179.414L53.1899 181.082L53.7905 177.559L53.9219 176.846L53.3776 176.322L50.8251 173.829L54.3536 173.323L55.0855 173.21L55.4234 172.554L56.9999 169.368V169.368ZM56.9999 166.182L54.1659 171.936L47.8033 172.854L52.4016 177.334L51.313 183.65L56.9436 180.67L62.5742 183.65L61.4856 177.334L66.0839 172.854L59.7214 171.936L56.8873 166.182H56.9999Z" fill="#F6A70B"/>
<path d="M9.19658 199.318L12.0306 205.072L18.3932 205.991L13.7949 210.47L14.8834 216.787L9.19658 213.807L3.50971 216.787L4.59829 210.47L0 205.991L6.34376 205.072L9.19658 199.318Z" fill="#F6A70B"/>
<path d="M33.1077 199.318L35.9418 205.072L42.2855 205.991L37.6872 210.47L38.7758 216.787L33.1077 213.807L27.4208 216.787L28.5094 210.47L23.9111 205.991L30.2549 205.072L33.1077 199.318Z" fill="#F6A70B"/>
<path d="M57 199.318L59.8529 205.072L66.1966 205.991L61.5983 210.47L62.6869 216.787L57 213.807L51.3132 216.787L52.4018 210.47L47.8035 205.991L54.166 205.072L57 199.318Z" fill="#F6A70B"/>
<path d="M81.0049 202.486L82.5814 205.691L82.9005 206.347L83.6325 206.459L87.161 206.965L84.6084 209.458L84.0829 209.964L84.2143 210.695L84.8149 214.2L81.643 212.551L81.0049 212.195L80.348 212.551L77.1761 214.2L77.7955 210.695L77.9081 209.964L77.3826 209.458L74.8301 206.965L78.3585 206.459L79.0905 206.347L79.4096 205.691L81.0049 202.486V202.486ZM81.0049 199.318L78.0582 204.979L71.7145 205.916L76.3128 210.377L75.2242 216.693L80.8547 213.713L86.4853 216.693L85.4155 210.377L89.995 205.916L83.6513 204.979L81.0049 199.356V199.318Z" fill="#F6A70B"/>
<path d="M104.803 202.486L106.38 205.691L106.718 206.347L107.45 206.459L110.978 206.965L108.426 209.458L107.9 209.964L108.013 210.695L108.613 214.2L105.404 212.476L104.747 212.12L104.09 212.476L100.937 214.125L101.538 210.62L101.669 209.889L101.144 209.383L98.591 206.89L102.119 206.384L102.851 206.272L103.171 205.616L104.747 202.411L104.803 202.486ZM104.747 199.243L101.969 204.978L95.6068 205.916L100.205 210.376L99.1165 216.693L104.747 213.713L110.378 216.693L109.289 210.376L113.887 205.916L107.544 204.978L104.803 199.356L104.747 199.243Z" fill="#F6A70B"/>
<path d="M9.19658 232.382L12.0306 238.117L18.3932 239.036L13.7949 243.515L14.8834 249.832L9.19658 246.851L3.50971 249.832L4.59829 243.515L0 239.036L6.34376 238.117L9.19658 232.382Z" fill="#F6A70B"/>
<path d="M33.1077 232.382L35.9418 238.117L42.2855 239.036L37.6872 243.515L38.7758 249.832L33.1077 246.851L27.4208 249.832L28.5094 243.515L23.9111 239.036L30.2549 238.117L33.1077 232.382Z" fill="#F6A70B"/>
<path d="M57 232.382L59.8529 238.117L66.1966 239.036L61.5983 243.515L62.6869 249.832L57 246.851L51.3132 249.832L52.4018 243.515L47.8035 239.036L54.166 238.117L57 232.382Z" fill="#F6A70B"/>
<path d="M104.803 235.549L106.38 238.735L106.718 239.391L107.45 239.504L110.978 240.01L108.426 242.465L107.9 242.99L108.013 243.702L108.613 247.226L105.46 245.558L104.803 245.22L104.146 245.558L100.993 247.226L101.594 243.702L101.725 242.99L101.2 242.465L98.6473 239.972L102.176 239.466L102.908 239.354L103.227 238.698L104.803 235.511V235.549ZM104.803 232.325L101.969 238.079L95.6068 238.998L100.205 243.477L99.1165 249.794L104.747 246.814L110.378 249.794L109.289 243.477L113.887 238.998L107.544 238.079L104.691 232.325H104.803Z" fill="#F6A70B"/>
<path d="M80.9111 246.851L75.2242 249.832L76.3128 243.515L71.7145 239.036L78.0582 238.117L80.9111 232.382V246.851Z" fill="#F6A70B"/>
<path d="M81.0048 235.549L82.5814 238.735L82.9004 239.391L83.6324 239.504L87.1609 240.01L84.5145 242.465L83.989 242.99L84.1204 243.702L84.721 247.226L81.5491 245.558L80.911 245.22L80.2541 245.558L77.0822 247.226L77.7016 243.702L77.8142 242.99L77.2511 242.465L74.6986 239.972L78.2271 239.466L78.9591 239.354L79.2781 238.698L80.8734 235.511L81.0048 235.549ZM80.8734 232.325L78.0206 238.079L71.6769 238.998L76.2752 243.477L75.1866 249.794L80.8171 246.814L86.4477 249.794L85.3779 243.477L89.9574 238.998L83.6137 238.079L81.0048 232.363L80.8734 232.325Z" fill="#F6A70B"/>
<path d="M9.19658 265.426L12.0306 271.18L18.3932 272.098L13.7949 276.578L14.8834 282.894L9.19658 279.914L3.50971 282.894L4.59829 276.578L0 272.098L6.34376 271.18L9.19658 265.426Z" fill="#F6A70B"/>
<path d="M33.1077 265.426L35.9418 271.18L42.2855 272.098L37.6872 276.578L38.7758 282.894L33.1077 279.914L27.4208 282.894L28.5094 276.578L23.9111 272.098L30.2549 271.18L33.1077 265.426Z" fill="#F6A70B"/>
<path d="M57 265.426L59.8529 271.18L66.1966 272.098L61.5983 276.578L62.6869 282.894L57 279.914L51.3132 282.894L52.4018 276.578L47.8035 272.098L54.166 271.18L57 265.426Z" fill="#F6A70B"/>
<path d="M80.9111 265.426L83.7451 271.18L90.1076 272.098L85.5093 276.578L86.5979 282.894L80.9111 279.914L75.2242 282.894L76.3128 276.578L71.7145 272.098L78.0582 271.18L80.9111 265.426Z" fill="#F6A70B"/>
<path d="M104.803 268.593L106.38 271.798L106.718 272.454L107.45 272.567L110.978 273.073L108.426 275.566L107.9 276.072L108.013 276.803L108.613 280.308L105.46 278.658L104.803 278.321L104.146 278.658L100.993 280.308L101.594 276.803L101.725 276.072L101.2 275.566L98.6473 273.073L102.176 272.567L102.908 272.454L103.227 271.798L104.803 268.593V268.593ZM104.803 265.426L101.969 271.161L95.6068 272.098L100.205 276.559L99.1165 282.875L104.747 279.895L110.378 282.875L109.289 276.559L113.887 272.098L107.544 271.161L104.691 265.426H104.803Z" fill="#F6A70B"/>
<path d="M9.19658 298.487L12.0306 304.223L18.3932 305.16L13.7949 309.621L14.8834 315.937L9.19658 312.957L3.50971 315.937L4.59829 309.621L0 305.16L6.34376 304.223L9.19658 298.487Z" fill="#F6A70B"/>
<path d="M33.1077 298.487L35.9418 304.223L42.2855 305.16L37.6872 309.621L38.7758 315.937L33.1077 312.957L27.4208 315.937L28.5094 309.621L23.9111 305.16L30.2549 304.223L33.1077 298.487Z" fill="#F6A70B"/>
<path d="M57 298.487L59.8529 304.223L66.1966 305.16L61.5983 309.621L62.6869 315.937L57 312.957L51.3132 315.937L52.4018 309.621L47.8035 305.16L54.166 304.223L57 298.487Z" fill="#F6A70B"/>
<path d="M80.9111 298.487L83.7451 304.223L90.1076 305.16L85.5093 309.621L86.5979 315.937L80.9111 312.957L75.2242 315.937L76.3128 309.621L71.7145 305.16L78.0582 304.223L80.9111 298.487Z" fill="#F6A70B"/>
<path d="M104.803 312.957L99.1353 315.937L100.224 309.621L95.6256 305.16L101.969 304.223L104.803 298.487V312.957Z" fill="#F6A70B"/>
<path d="M104.803 301.655L106.38 304.842L106.718 305.498L107.45 305.61L111.035 306.191L108.482 308.684L107.957 309.209L108.069 309.921L108.67 313.445L105.517 311.776L104.86 311.439L104.203 311.776L101.05 313.445L101.65 309.94L101.782 309.227L101.256 308.703L98.6473 306.191L102.176 305.685L102.908 305.573L103.227 304.917L104.803 301.73V301.655ZM104.803 298.544L101.969 304.317L95.6068 305.235L100.205 309.715L99.1165 316.031L104.747 313.051L110.378 316.031L109.289 309.715L113.887 305.235L107.656 304.317L104.803 298.563V298.544Z" fill="#F6A70B"/>
<path d="M9.19658 331.531L12.0306 337.285L18.3932 338.204L13.7949 342.683L14.8834 349L9.19658 346.02L3.50971 349L4.59829 342.683L0 338.204L6.34376 337.285L9.19658 331.531Z" fill="#F6A70B"/>
<path d="M33.1077 331.531L35.9418 337.285L42.2855 338.204L37.6872 342.683L38.7758 349L33.1077 346.02L27.4208 349L28.5094 342.683L23.9111 338.204L30.2549 337.285L33.1077 331.531Z" fill="#F6A70B"/>
<path d="M57 331.531L59.8529 337.285L66.1966 338.204L61.5983 342.683L62.6869 349L57 346.02L51.3132 349L52.4018 342.683L47.8035 338.204L54.166 337.285L57 331.531Z" fill="#F6A70B"/>
<path d="M80.9111 331.531L83.7451 337.285L90.1076 338.204L85.5093 342.683L86.5979 349L80.9111 346.02L75.2242 349L76.3128 342.683L71.7145 338.204L78.0582 337.285L80.9111 331.531Z" fill="#F6A70B"/>
<path d="M104.803 331.531L107.656 337.285L114 338.204L109.402 342.683L110.49 349L104.803 346.02L99.1353 349L100.224 342.683L95.6256 338.204L101.969 337.285L104.803 331.531Z" fill="#F6A70B"/>
</svg>
