<svg width="19" height="19" viewBox="0 0 19 19" fill="none" xmlns="http://www.w3.org/2000/svg">
<g clip-path="url(#clip0)">
<path d="M16.8345 3.76662C16.8345 5.05303 15.7918 6.09588 14.5054 6.09588C13.219 6.09588 12.1763 5.05303 12.1763 3.76662C12.1763 2.48035 13.219 1.4375 14.5054 1.4375C15.7918 1.4375 16.8345 2.48035 16.8345 3.76662V3.76662Z" fill="black"/>
<path d="M14.5053 6.6334C12.9243 6.6334 11.6387 5.34765 11.6387 3.76665C11.6387 2.18577 12.9243 0.900024 14.5053 0.900024C16.0863 0.900024 17.3719 2.18577 17.3719 3.76665C17.3719 5.34765 16.0863 6.6334 14.5053 6.6334ZM14.5053 1.97502C13.517 1.97502 12.7137 2.77917 12.7137 3.76665C12.7137 4.75425 13.517 5.5584 14.5053 5.5584C15.4936 5.5584 16.2969 4.75425 16.2969 3.76665C16.2969 2.77917 15.4936 1.97502 14.5053 1.97502Z" fill="black"/>
<path d="M16.8345 15.2334C16.8345 16.5197 15.7918 17.5626 14.5054 17.5626C13.219 17.5626 12.1763 16.5197 12.1763 15.2334C12.1763 13.947 13.219 12.9042 14.5054 12.9042C15.7918 12.9042 16.8345 13.947 16.8345 15.2334V15.2334Z" fill="black"/>
<path d="M14.5053 18.1001C12.9243 18.1001 11.6387 16.8143 11.6387 15.2335C11.6387 13.6524 12.9243 12.3667 14.5053 12.3667C16.0863 12.3667 17.3719 13.6524 17.3719 15.2335C17.3719 16.8143 16.0863 18.1001 14.5053 18.1001ZM14.5053 13.4417C13.517 13.4417 12.7137 14.2458 12.7137 15.2335C12.7137 16.2209 13.517 17.0251 14.5053 17.0251C15.4936 17.0251 16.2969 16.2209 16.2969 15.2335C16.2969 14.2458 15.4936 13.4417 14.5053 13.4417V13.4417Z" fill="black"/>
<path d="M6.80144 9.50002C6.80144 10.7864 5.75859 11.8291 4.47219 11.8291C3.18592 11.8291 2.14307 10.7864 2.14307 9.50002C2.14307 8.21362 3.18592 7.1709 4.47219 7.1709C5.75859 7.1709 6.80144 8.21362 6.80144 9.50002Z" fill="black"/>
<path d="M4.47209 12.3667C2.89122 12.3667 1.60547 11.0811 1.60547 9.50005C1.60547 7.91904 2.89122 6.63342 4.47209 6.63342C6.0531 6.63342 7.33885 7.91904 7.33885 9.50005C7.33885 11.0811 6.0531 12.3667 4.47209 12.3667ZM4.47209 7.70842C3.48383 7.70842 2.68047 8.51244 2.68047 9.50005C2.68047 10.4877 3.48383 11.2917 4.47209 11.2917C5.46048 11.2917 6.26385 10.4877 6.26385 9.50005C6.26385 8.51244 5.46048 7.70842 4.47209 7.70842Z" fill="black"/>
<path d="M6.16416 9.15607C5.9147 9.15607 5.67246 9.02629 5.54057 8.79415C5.34492 8.45087 5.46538 8.01297 5.80867 7.81652L12.4585 4.02542C12.8018 3.82832 13.2397 3.94878 13.4362 4.29338C13.6318 4.63667 13.5113 5.07457 13.1681 5.27101L6.51807 9.06212C6.40627 9.12589 6.28449 9.15607 6.16416 9.15607V9.15607Z" fill="black"/>
<path d="M12.8131 15.0685C12.6926 15.0685 12.5708 15.0384 12.459 14.9746L5.80906 11.1835C5.46577 10.9878 5.34544 10.5499 5.5411 10.2058C5.73597 9.86189 6.17452 9.74077 6.51859 9.93787L13.1686 13.729C13.5119 13.9246 13.6322 14.3625 13.4365 14.7066C13.304 14.9388 13.0618 15.0685 12.8131 15.0685V15.0685Z" fill="black"/>
</g>
<defs>
<clipPath id="clip0">
<rect width="17.2" height="17.2" fill="white" transform="translate(0.899902 0.900024)"/>
</clipPath>
</defs>
</svg>
