<?xml version="1.0" encoding="iso-8859-1"?>
<!-- Generator: Adobe Illustrator 25.2.3, SVG Export Plug-In . SVG Version: 6.00 Build 0)  -->
<svg version="1.1" id="Layer_1" xmlns="http://www.w3.org/2000/svg" xmlns:xlink="http://www.w3.org/1999/xlink" x="0px" y="0px"
	 viewBox="0 0 348.094 66.929" style="enable-background:new 0 0 348.094 66.929;" xml:space="preserve">
<g>
	<path style="fill:#FFFFFF;" d="M26.074,58.654c-9.97,0-18.081-8.111-18.081-18.081s8.112-18.081,18.081-18.081
		c5.415,0,10.502,2.399,13.956,6.583l6.162-5.089c-4.978-6.029-12.309-9.487-20.119-9.487C11.697,14.499,0,26.195,0,40.573
		s11.697,26.074,26.074,26.074c7.909,0,15.301-3.529,20.279-9.684l-6.213-5.027C36.686,56.205,31.56,58.654,26.074,58.654z"/>
	<path style="fill:#FFFFFF;" d="M301.693,14.567c-14.376,0-26.07,11.696-26.07,26.07s11.695,26.069,26.07,26.069
		c8.075,0,15.562-3.651,20.542-10.017l-6.295-4.925c-3.454,4.417-8.646,6.95-14.247,6.95c-8.594,0-15.808-6.03-17.633-14.08h43.703
		v-3.996C327.764,26.263,316.069,14.567,301.693,14.567z M284.061,36.641c1.824-8.052,9.037-14.081,17.633-14.081
		s15.808,6.029,17.633,14.081H284.061z"/>
	<path style="fill:#FFFFFF;" d="M256.143,21.952c-4.65-4.503-10.979-7.283-17.949-7.283c-14.239,0-25.823,11.583-25.823,25.821
		s11.583,25.822,25.823,25.822c6.97,0,13.298-2.78,17.949-7.284v7.66h7.993V0h-7.993V21.952z M238.194,58.32
		c-9.831,0-17.83-7.999-17.83-17.83s7.999-17.829,17.83-17.829s17.83,7.998,17.83,17.829S248.025,58.32,238.194,58.32z"/>
	<path style="fill:#FFFFFF;" d="M141.154,15.513h-7.993v6.116c-4.681-4.434-10.993-7.163-17.935-7.163
		c-14.395,0-26.105,11.711-26.105,26.106s11.71,26.106,26.105,26.106c6.942,0,13.254-2.729,17.935-7.163v7.217h7.993v-23.16
		c0.113-0.985,0.178-1.985,0.178-3s-0.064-2.015-0.178-3V15.513z M133.161,42.97c-1.179,8.856-8.763,15.716-17.935,15.716
		c-9.987,0-18.113-8.125-18.113-18.114s8.125-18.114,18.113-18.114c9.173,0,16.756,6.86,17.935,15.716V42.97z"/>
	<rect x="339.825" y="0" style="fill:#FFFFFF;" width="7.993" height="67.039"/>
	<path style="fill:#FFFFFF;" d="M181.007,37.443c-11.115,0-19.736-12.247-19.736-22.782h-7.993c0,13.278,9.91,27.986,23.733,30.418
		v21.654h7.993V45.079c13.823-2.432,23.733-17.14,23.733-30.418h-7.993C200.743,25.196,192.122,37.443,181.007,37.443z"/>
	<path style="fill:#FFFFFF;" d="M66.339,14.467h-7.993v25.367v24.069v2.829h7.993v-2.829V39.834
		c0-9.686,10.672-17.197,19.853-17.197v-7.993c-6.993,0-14.427,3.05-19.853,8.075C66.339,22.719,66.339,14.467,66.339,14.467z"/>
</g>
<circle style="fill:#F6A70B;" cx="182.007" cy="17.602" r="7.279"/>
</svg>
