<svg width="28" height="28" viewBox="0 0 28 28" fill="none" xmlns="http://www.w3.org/2000/svg">
<path fill-rule="evenodd" clip-rule="evenodd" d="M18.6667 12.1333C18.6667 15.7416 15.7417 18.6667 12.1334 18.6667C8.52513 18.6667 5.60006 15.7416 5.60006 12.1333C5.60006 8.52507 8.52513 5.6 12.1334 5.6C15.7417 5.6 18.6667 8.52507 18.6667 12.1333ZM17.3766 18.6963C15.9395 19.846 14.1167 20.5333 12.1334 20.5333C7.49421 20.5333 3.7334 16.7725 3.7334 12.1333C3.7334 7.49415 7.49421 3.73334 12.1334 3.73334C16.7726 3.73334 20.5334 7.49415 20.5334 12.1333C20.5334 14.1167 19.8461 15.9395 18.6964 17.3765L23.9934 22.6733C24.3578 23.0378 24.3578 23.6288 23.9934 23.9934C23.6289 24.3578 23.0379 24.3578 22.6733 23.9934L17.3766 18.6963Z" fill="#18244F"/>
</svg>
