<svg width="456" height="102" viewBox="0 0 456 102" fill="none" xmlns="http://www.w3.org/2000/svg">
<path d="M422 75.47L438.96 49L455.91 75.47" fill="white"/>
<path fill-rule="evenodd" clip-rule="evenodd" d="M55.8593 28.0501H70.7528L69.7065 25.3316C64.279 11.2308 51.7097 3.34009 36.15 3.34009C15.8802 3.34009 0 18.7708 0 40.3701C0 61.9839 15.8947 77.2101 36.15 77.2101C51.7263 77.2101 64.2713 69.4316 69.7043 55.4442L70.7624 52.7201H55.8665L55.3318 53.8869C51.9534 61.2596 45.4318 65.4701 36.15 65.4701C29.4804 65.4701 23.771 63.0782 19.7239 58.8326C15.6736 54.5835 13.15 48.3299 13.15 40.3701C13.15 32.4098 15.6739 26.1344 19.7268 21.8644C23.7758 17.5986 29.485 15.1901 36.15 15.1901C45.4273 15.1901 51.9465 19.3957 55.3276 26.874L55.8593 28.0501Z" fill="white"/>
<path fill-rule="evenodd" clip-rule="evenodd" d="M83 76.6201H96V45.3801C96 39.4716 97.5285 36.023 99.6685 34.0185C101.833 31.9915 104.993 31.0901 109 31.0901H113.37V17.8601H111.37C104.868 17.8601 99.6777 19.8905 96 23.4637V18.8401H83V76.6201Z" fill="white"/>
<path fill-rule="evenodd" clip-rule="evenodd" d="M178.73 18.84H165.73V24.8426C161.637 20.8675 155.527 17.96 147.73 17.96C140.001 17.96 133.088 20.8583 128.113 26.063C123.139 31.2663 120.21 38.6588 120.21 47.47C120.21 65.1543 132.06 77.47 147.63 77.47C155.404 77.47 161.576 74.5514 165.73 70.4769V76.62H178.73V18.84ZM133.34 47.54C133.34 41.6637 135.266 37.232 138.164 34.2781C141.07 31.3165 145.078 29.71 149.49 29.71C158.146 29.71 165.74 36.2247 165.74 47.65C165.74 53.5099 163.793 57.9889 160.862 60.9934C157.924 64.0055 153.888 65.65 149.49 65.65C145.101 65.65 141.093 63.9895 138.178 60.9565C135.268 57.9285 133.34 53.4183 133.34 47.54Z" fill="white"/>
<path fill-rule="evenodd" clip-rule="evenodd" d="M245.11 18.8401H231.534L216.21 58.8452L200.72 18.8401H186.465L208.959 74.0287L197.541 101.94H211.092L245.11 18.8401ZM242.129 20.8401L209.749 99.9401H209.75L242.13 20.8401H242.129ZM199.349 20.8401L216.219 64.4101L216.219 64.4088L199.35 20.8401H199.349Z" fill="white"/>
<path fill-rule="evenodd" clip-rule="evenodd" d="M308.18 0H295.18V24.8742C290.635 20.6155 284.13 17.96 277.26 17.96C269.489 17.96 262.558 20.8562 257.575 26.0621C252.594 31.2663 249.67 38.6598 249.67 47.47C249.67 65.1591 261.525 77.47 277.18 77.47C284.873 77.47 291.024 74.5882 295.18 70.4406V76.62H308.18V0ZM262.78 47.54C262.78 41.6638 264.706 37.232 267.604 34.2782C270.51 31.3165 274.518 29.71 278.93 29.71C287.586 29.71 295.18 36.2247 295.18 47.65C295.18 53.5099 293.233 57.989 290.302 60.9934C287.364 64.0055 283.328 65.65 278.93 65.65C274.541 65.65 270.533 63.9896 267.618 60.9566C264.708 57.9285 262.78 53.4184 262.78 47.54Z" fill="white"/>
<path fill-rule="evenodd" clip-rule="evenodd" d="M368.821 66.5857C370.419 64.6108 371.668 62.3873 372.549 60.0002C372.579 59.9183 372.609 59.8362 372.638 59.754C371.753 62.2344 370.474 64.5431 368.821 66.5857ZM374.31 45.9802C374.31 45.9794 374.31 45.9786 374.31 45.9779L376.31 45.634C376.308 37.8177 373.619 30.8718 368.728 25.8706C363.828 20.8606 356.845 17.9302 348.51 17.9302C340.2 17.9302 333.009 20.7422 327.894 25.9602C322.781 31.1768 319.91 38.6275 319.91 47.6002C319.91 56.5913 322.89 64.0851 328.041 69.3401C333.19 74.5945 340.374 77.4702 348.51 77.4702C362.73 77.4702 372.175 69.2678 375.119 58.5289L375.812 56.0002H362.146L361.686 57.3589C360.017 62.288 355.665 65.9202 348.47 65.9202C344.343 65.9202 340.646 64.5702 337.917 62.085C335.601 59.9771 333.888 56.9675 333.237 53.0402H375.811L376.008 51.2605C376.215 49.393 376.316 47.5153 376.31 45.6364L374.31 45.9802ZM344.872 51.0402L333.237 53.0402L344.869 51.0402H344.872ZM331.369 42.0535C331.383 41.9721 331.397 41.891 331.412 41.8102C331.546 41.0669 331.714 40.3507 331.913 39.662C331.692 40.4255 331.51 41.2229 331.369 42.0535ZM338.064 33.2054C335.861 35.215 334.188 38.0793 333.447 41.8102H363C362.615 38.0858 361.03 35.2328 358.768 33.2227C356.087 30.8407 352.311 29.5202 348.09 29.5202C344.184 29.5202 340.687 30.8136 338.064 33.2054Z" fill="white"/>
<path fill-rule="evenodd" clip-rule="evenodd" d="M401 0H388V76.62H401V0Z" fill="white"/>
</svg>
